<?xml version="1.0" encoding="UTF-8"?>
<svg width="310px" height="58px" viewBox="0 0 310 58" version="1.1" xmlns="http://www.w3.org/2000/svg" xmlns:xlink="http://www.w3.org/1999/xlink">
    <!-- Generator: Sketch 52.1 (67048) - http://www.bohemiancoding.com/sketch -->
    <title>Bcenario</title>
    <desc>Created with Sketch.</desc>
    <g id="Page-1" stroke="none" stroke-width="1" fill="none" fill-rule="evenodd">
        <g id="3" transform="translate(-805.000000, -757.000000)" fill="#EDF1F0">
            <g id="分组-5" transform="translate(360.000000, 710.000000)">
                <g id="分组-6" transform="translate(445.000000, 47.000000)">
                    <path d="M48.5,13.4 C48.5,18.68 46.5,24.36 39.94,28.2 C42.66,30.36 44.74,32.68 44.74,37.8 C44.74,49.56 36.02,57 24.98,57 L0.42,57 L11.86,0.04 L33.38,0.04 C42.9,0.04 48.5,5.4 48.5,13.4 Z M34.98,16.04 C34.98,14.12 34.18,11.8 30.9,11.8 L22.82,11.8 L20.66,22.28 L28.5,22.28 C33.7,22.28 34.98,18.12 34.98,16.04 Z M31.3,38.44 C31.3,36.28 30.26,34.04 26.98,34.04 L18.34,34.04 L16.1,45.24 L24.58,45.24 C28.98,45.24 31.3,42.12 31.3,38.44 Z M86.42,19.24 L76.98,27.56 C75.7,25.88 74.34,24.76 72.42,24.76 C70.82,24.76 69.3,25.4 68.1,26.68 C66.34,28.52 64.98,31.56 64.26,35.48 C63.94,37.16 63.7,38.76 63.7,40.52 C63.7,43.64 64.58,46.2 68.02,46.2 C70.26,46.2 72.1,45.16 73.94,43.32 L80.82,52.36 C77.38,55.4 72.34,57.48 66.66,57.48 C59.54,57.48 51.14,53.16 51.14,42.2 C51.14,39.96 51.38,37.64 51.78,35.48 C55.3,16.28 66.1,13.48 73.62,13.48 C80.02,13.48 83.94,16.2 86.42,19.24 Z M125.06,29.16 C125.06,32.44 124.42,36.12 123.62,39.48 L98.82,39.48 C98.74,40.28 98.66,40.68 98.66,41.24 C98.66,44.68 100.74,47 104.98,47 C108.58,47 111.54,45.56 114.18,43 L120.42,51.16 C116.1,55.32 109.78,57.48 103.46,57.48 C96.5,57.48 86.82,54.28 86.82,42.2 C86.82,26.92 94.42,13.48 108.98,13.48 C118.1,13.48 125.06,19.24 125.06,29.16 Z M113.22,29.16 C113.22,25.88 111.54,23.72 108.26,23.72 C104.98,23.72 102.02,25.72 100.42,31.24 L112.98,31.24 C113.14,30.6 113.22,29.64 113.22,29.16 Z M168.66,25.32 C168.66,27.08 168.42,28.84 168.1,30.28 L162.74,57 L150.26,57 L155.46,31 C155.62,30.28 155.7,29.48 155.7,28.84 C155.7,25.96 153.7,24.76 152.1,24.76 C149.22,24.76 146.42,26.2 145.46,31 L140.26,57 L127.78,57 L136.34,13.96 L148.26,13.96 L147.54,17.72 C150.26,15 154.34,13.48 158.1,13.48 C162.34,13.48 168.66,16.36 168.66,25.32 Z M210.02,25.88 C210.02,27.16 209.78,28.68 209.54,29.88 L204.1,57 L192.1,57 L192.82,53.48 C190.82,55.48 187.78,57.4 183.46,57.4 C175.62,57.4 171.46,51.48 171.46,45.64 C171.46,41.08 172.9,37.64 175.3,35.32 C178.34,32.36 182.9,31 187.86,31 L196.82,31 L197.14,29.48 C197.3,28.84 197.38,28.36 197.38,27.64 C197.38,25.48 196.02,23.88 192.26,23.88 C188.66,23.88 185.86,25.48 184.26,27.32 L178.02,19 C181.3,15.88 185.86,13.48 194.26,13.48 C202.1,13.48 210.02,16.84 210.02,25.88 Z M195.14,39.32 L189.06,39.32 C185.46,39.32 183.7,41.8 183.7,44.2 C183.7,45.96 184.98,47.4 187.46,47.4 C189.78,47.4 191.62,46.36 192.82,45.16 C193.94,44.04 194.58,42.28 194.9,40.52 L195.14,39.32 Z M251.94,17.56 L241.06,27.24 C240.5,26.68 239.46,24.84 237.06,24.84 C234.18,24.84 231.22,27.16 230.42,31.24 L225.3,57 L212.82,57 L221.38,13.96 L233.38,13.96 L232.66,17.64 C234.9,15.08 238.82,13.48 242.9,13.48 C246.98,13.48 249.62,14.76 251.94,17.56 Z M272.58,0.04 L270.66,9.72 L258.18,9.72 L260.1,0.04 L272.58,0.04 Z M269.46,15.64 L261.22,57 L248.74,57 L256.98,15.64 L269.46,15.64 Z M309.46,27.72 C309.46,30.36 308.98,33.48 308.58,35.48 C306.98,44.04 305.06,48.44 301.14,52.36 C298.1,55.4 293.38,57.48 287.46,57.48 C280.02,57.48 272.5,52.92 272.5,43.24 C272.5,40.6 272.98,37.48 273.38,35.48 C274.98,26.92 276.9,22.52 280.82,18.6 C283.86,15.56 288.58,13.48 294.5,13.48 C301.94,13.48 309.46,18.04 309.46,27.72 Z M297.06,29.24 C297.06,26.44 295.78,24.76 293.22,24.76 C291.62,24.76 290.34,25.24 289.38,26.2 C287.62,27.88 286.66,31.08 285.78,35.48 C284.98,39.72 284.9,41.16 284.9,41.72 C284.9,44.52 286.18,46.2 288.74,46.2 C290.34,46.2 291.62,45.72 292.58,44.76 C294.34,43.08 295.3,39.88 296.18,35.48 C296.98,31.24 297.06,29.8 297.06,29.24 Z" id="Bcenario"></path>
                </g>
            </g>
        </g>
    </g>
</svg>