<?xml version="1.0" encoding="UTF-8"?>
<svg width="316px" height="58px" viewBox="0 0 316 58" version="1.1" xmlns="http://www.w3.org/2000/svg" xmlns:xlink="http://www.w3.org/1999/xlink">
    <!-- Generator: Sketch 52.1 (67048) - http://www.bohemiancoding.com/sketch -->
    <title>Business</title>
    <desc>Created with Sketch.</desc>
    <g id="Page-1" stroke="none" stroke-width="1" fill="none" fill-rule="evenodd">
        <g id="1-1-copy" transform="translate(-802.000000, -1679.000000)" fill="#E5E5E5">
            <g id="分组-5" transform="translate(802.000000, 1679.000000)">
                <path d="M48.54,13.4 C48.54,18.68 46.54,24.36 39.98,28.2 C42.7,30.36 44.78,32.68 44.78,37.8 C44.78,49.56 36.06,57 25.02,57 L0.46,57 L11.9,0.04 L33.42,0.04 C42.94,0.04 48.54,5.4 48.54,13.4 Z M35.02,16.04 C35.02,14.12 34.22,11.8 30.94,11.8 L22.86,11.8 L20.7,22.28 L28.54,22.28 C33.74,22.28 35.02,18.12 35.02,16.04 Z M31.34,38.44 C31.34,36.28 30.3,34.04 27.02,34.04 L18.38,34.04 L16.14,45.24 L24.62,45.24 C29.02,45.24 31.34,42.12 31.34,38.44 Z M92.38,13.96 L83.82,57 L71.9,57 L72.62,53.24 C69.9,55.96 65.82,57.48 62.06,57.48 C57.82,57.48 51.5,54.6 51.5,45.64 C51.5,43.88 51.74,42.12 52.06,40.68 L57.42,13.96 L69.9,13.96 L64.7,39.96 C64.54,40.68 64.46,41.48 64.46,42.12 C64.46,45 66.46,46.2 68.06,46.2 C70.94,46.2 73.74,44.76 74.7,39.96 L79.9,13.96 L92.38,13.96 Z M130.7,19.08 L122.22,26.6 C120.7,24.68 117.34,23.72 115.02,23.72 C110.94,23.72 109.26,25.24 109.26,27 C109.26,28.2 110.06,29 111.9,29.32 L117.34,30.28 C125.02,31.64 127.74,36.12 127.74,41.8 C127.74,46.68 125.66,50.2 122.94,52.76 C119.34,56.2 113.26,57.48 107.82,57.48 C99.82,57.48 94.7,55.08 90.86,50.92 L99.74,43.08 C101.5,45.16 104.22,46.76 108.62,46.76 C113.02,46.76 115.34,45 115.34,43.24 C115.34,41.72 114.22,41 112.38,40.68 L106.94,39.72 C99.74,38.44 96.78,34.12 96.78,29.8 C96.78,25.48 98.3,21.56 101.34,18.52 C104.7,15.16 109.98,13.48 116.06,13.48 C122.38,13.48 126.86,14.92 130.7,19.08 Z M155.34,0.04 L153.42,9.72 L140.94,9.72 L142.86,0.04 L155.34,0.04 Z M152.22,15.64 L143.98,57 L131.5,57 L139.74,15.64 L152.22,15.64 Z M194.3,25.32 C194.3,27.08 194.06,28.84 193.74,30.28 L188.38,57 L175.9,57 L181.1,31 C181.26,30.28 181.34,29.48 181.34,28.84 C181.34,25.96 179.34,24.76 177.74,24.76 C174.86,24.76 172.06,26.2 171.1,31 L165.9,57 L153.42,57 L161.98,13.96 L173.9,13.96 L173.18,17.72 C175.9,15 179.98,13.48 183.74,13.48 C187.98,13.48 194.3,16.36 194.3,25.32 Z M237.34,29.16 C237.34,32.44 236.7,36.12 235.9,39.48 L211.1,39.48 C211.02,40.28 210.94,40.68 210.94,41.24 C210.94,44.68 213.02,47 217.26,47 C220.86,47 223.82,45.56 226.46,43 L232.7,51.16 C228.38,55.32 222.06,57.48 215.74,57.48 C208.78,57.48 199.1,54.28 199.1,42.2 C199.1,26.92 206.7,13.48 221.26,13.48 C230.38,13.48 237.34,19.24 237.34,29.16 Z M225.5,29.16 C225.5,25.88 223.82,23.72 220.54,23.72 C217.26,23.72 214.3,25.72 212.7,31.24 L225.26,31.24 C225.42,30.6 225.5,29.64 225.5,29.16 Z M277.42,19.08 L268.94,26.6 C267.42,24.68 264.06,23.72 261.74,23.72 C257.66,23.72 255.98,25.24 255.98,27 C255.98,28.2 256.78,29 258.62,29.32 L264.06,30.28 C271.74,31.64 274.46,36.12 274.46,41.8 C274.46,46.68 272.38,50.2 269.66,52.76 C266.06,56.2 259.98,57.48 254.54,57.48 C246.54,57.48 241.42,55.08 237.58,50.92 L246.46,43.08 C248.22,45.16 250.94,46.76 255.34,46.76 C259.74,46.76 262.06,45 262.06,43.24 C262.06,41.72 260.94,41 259.1,40.68 L253.66,39.72 C246.46,38.44 243.5,34.12 243.5,29.8 C243.5,25.48 245.02,21.56 248.06,18.52 C251.42,15.16 256.7,13.48 262.78,13.48 C269.1,13.48 273.58,14.92 277.42,19.08 Z M315.58,19.08 L307.1,26.6 C305.58,24.68 302.22,23.72 299.9,23.72 C295.82,23.72 294.14,25.24 294.14,27 C294.14,28.2 294.94,29 296.78,29.32 L302.22,30.28 C309.9,31.64 312.62,36.12 312.62,41.8 C312.62,46.68 310.54,50.2 307.82,52.76 C304.22,56.2 298.14,57.48 292.7,57.48 C284.7,57.48 279.58,55.08 275.74,50.92 L284.62,43.08 C286.38,45.16 289.1,46.76 293.5,46.76 C297.9,46.76 300.22,45 300.22,43.24 C300.22,41.72 299.1,41 297.26,40.68 L291.82,39.72 C284.62,38.44 281.66,34.12 281.66,29.8 C281.66,25.48 283.18,21.56 286.22,18.52 C289.58,15.16 294.86,13.48 300.94,13.48 C307.26,13.48 311.74,14.92 315.58,19.08 Z" id="Business"></path>
            </g>
        </g>
    </g>
</svg>