<?xml version="1.0" encoding="UTF-8"?>
<svg width="100px" height="42px" viewBox="0 0 100 42" version="1.1" xmlns="http://www.w3.org/2000/svg" xmlns:xlink="http://www.w3.org/1999/xlink">
    <!-- Generator: Sketch 52.1 (67048) - http://www.bohemiancoding.com/sketch -->
    <title>logo</title>
    <desc>Created with Sketch.</desc>
    <g id="Page-1" stroke="none" stroke-width="1" fill="none" fill-rule="evenodd">
        <g id="1-1-copy" transform="translate(-386.000000, -20.000000)">
            <g id="导航栏">
                <rect id="Rectangle-1051" fill-opacity="0" fill="#FFFFFF" x="0" y="0" width="1920" height="80"></rect>
                <g id="logo" transform="translate(386.000000, 20.000000)">
                    <path d="M6.74411765,37.6970588 L6.74411765,35.9323529 L2.71691176,35.9323529 L6.67867647,30.7669118 L6.67867647,29.3529412 L0.1,29.3529412 L0.1,31.0698529 L4.05367647,31.0698529 L0.00220588235,36.3007353 L0.00220588235,37.6977941 L6.74411765,37.6977941 L6.74411765,37.6970588 Z M16.0213235,37.6970588 L16.0213235,32.0963235 C16.0263212,31.6895611 15.9728332,31.2841917 15.8625,30.8926471 C15.768032,30.5568356 15.6056085,30.2440014 15.3852941,29.9735294 C15.1709337,29.7185586 14.9000225,29.5171377 14.5941176,29.3852941 C14.2432181,29.238713 13.8654859,29.1673246 13.4852941,29.1757353 C13.2246857,29.1731784 12.9647202,29.2020635 12.7110294,29.2617647 C12.4837316,29.3168908 12.2645132,29.4011675 12.0588235,29.5125 C11.8550701,29.6240035 11.666097,29.7606075 11.4963235,29.9191176 C11.3131838,30.0899663 11.1412581,30.2724532 10.9816176,30.4654412 L11.0794118,28.9544118 L11.0794118,26.0926471 L9.09191176,26.0926471 L9.09191176,37.6970588 L11.0808824,37.6970588 L11.0808824,32.4161765 C11.3658544,32.0109595 11.6923817,31.6366237 12.0551471,31.2992647 C12.3140548,31.0457224 12.6590912,30.8992001 13.0213235,30.8889706 C13.6953431,30.8889706 14.0323529,31.3460784 14.0323529,32.2602941 L14.0323529,37.6970588 L16.0213235,37.6970588 Z M23.0485294,26.5610294 C22.9853153,26.4051231 22.8927014,26.2628321 22.7757353,26.1419118 C22.5333274,25.8919173 22.1989399,25.7523677 21.8507353,25.7558824 C21.6739658,25.7549856 21.4988564,25.7900075 21.3360294,25.8588235 C21.1800006,25.9244351 21.0387297,26.0206994 20.9205882,26.1419118 C20.8033155,26.2627339 20.7104433,26.4050381 20.6470588,26.5610294 C20.5166409,26.8879638 20.5166409,27.2524773 20.6470588,27.5794118 C20.7097998,27.7344352 20.8027845,27.8754122 20.9205882,27.9941176 C21.16814,28.2408793 21.5041531,28.3783031 21.8536765,28.3757353 C22.0305299,28.3775128 22.2058168,28.3424555 22.3683824,28.2727941 C22.5222514,28.2068622 22.6620351,28.112009 22.7801471,27.9933824 C22.8976409,27.8745736 22.9903663,27.733611 23.0529412,27.5786765 C23.1819842,27.2514884 23.1806684,26.8872766 23.0492647,26.5610294 L23.0485294,26.5610294 Z M20.9455882,36.1367647 L18.3205882,36.1367647 L18.3205882,37.6970588 L25.3720588,37.6970588 L25.3720588,36.1367647 L22.9838235,36.1367647 L22.9838235,29.3529412 L18.6073529,29.3529412 L18.6073529,30.9132353 L20.9455882,30.9132353 L20.9455882,36.1338235 L20.9455882,36.1367647 Z M35.3345588,29.3529412 L33.2022059,29.3529412 L31.4654412,34.1492647 L30.9602941,35.6110294 L30.4455882,34.0830882 L28.7227941,29.3529412 L26.5058824,29.3529412 L29.7911765,37.6970588 C29.6927196,37.9439286 29.572645,38.1816173 29.4323529,38.4073529 C29.3059784,38.6118659 29.154015,38.799411 28.9801471,38.9654412 C28.8214635,39.117585 28.6382571,39.241877 28.4382353,39.3330882 C28.2379961,39.4216872 28.0211626,39.4665579 27.8022059,39.4647059 C27.7205882,39.4647059 27.6323529,39.4647059 27.5375,39.4566176 C27.4426471,39.4485294 27.3485294,39.4441176 27.2566176,39.4360294 C27.1647059,39.4279412 27.0757353,39.4169118 26.9919118,39.4029412 L26.7713235,39.3661765 L26.7713235,41.0661765 C26.939951,41.0936275 27.1044118,41.1139706 27.2647059,41.1272059 C27.425,41.1404412 27.5720588,41.1473039 27.7058824,41.1477941 C28.2334373,41.1557045 28.757613,41.0623513 29.25,40.8727941 C29.7167273,40.6840828 30.1415392,40.4049564 30.5,40.0514706 C30.9049268,39.6471968 31.2514104,39.1883535 31.5294118,38.6882353 C31.8737846,38.0765252 32.1747702,37.4413842 32.4301471,36.7875 L35.3345588,29.3529412 Z M41.4080882,26.5588235 C41.3448742,26.4029172 41.2522602,26.2606262 41.1352941,26.1397059 C40.8928862,25.8897114 40.5584987,25.7501618 40.2102941,25.7536765 C40.0335246,25.7527797 39.8584152,25.7878016 39.6955882,25.8566176 C39.5395595,25.9222292 39.3982885,26.0184935 39.2801471,26.1397059 C39.1631378,26.2605918 39.070518,26.4028917 39.0073529,26.5588235 C38.876935,26.885758 38.876935,27.2502715 39.0073529,27.5772059 C39.0698756,27.7321678 39.1626074,27.8731401 39.2801471,27.9919118 C39.5278785,28.2388555 39.8641929,28.3762942 40.2139706,28.3735294 C40.3908219,28.3752855 40.5661045,28.340229 40.7286765,28.2705882 C40.8825455,28.2046563 41.0223292,28.1098031 41.1404412,27.9911765 C41.257935,27.8723677 41.3506604,27.7314051 41.4132353,27.5764706 C41.5412214,27.2497461 41.5393798,26.8864397 41.4080882,26.5610294 L41.4080882,26.5588235 Z M39.3044118,36.1345588 L36.6794118,36.1345588 L36.6794118,37.6948529 L43.7308824,37.6948529 L43.7308824,36.1345588 L41.3426471,36.1345588 L41.3426471,29.3529412 L36.9654412,29.3529412 L36.9654412,30.9132353 L39.3051471,30.9132353 L39.3051471,36.1338235 L39.3044118,36.1345588 Z M52.7397059,37.6948529 L52.7397059,32.0941176 C52.7447035,31.6873552 52.6912156,31.2819858 52.5808824,30.8904412 C52.486473,30.5546065 52.3240435,30.2417609 52.1036765,29.9713235 C51.889316,29.7163527 51.6184049,29.5149318 51.3125,29.3830882 C50.9616004,29.2365071 50.5838683,29.1651188 50.2036765,29.1735294 C49.9430681,29.1709725 49.6831026,29.1998576 49.4294118,29.2595588 C49.202114,29.3146849 48.9828956,29.3989616 48.7772059,29.5102941 C48.5734648,29.6218172 48.3844941,29.7584196 48.2147059,29.9169118 C48.0315863,30.0877807 47.8596619,30.2702662 47.7,30.4632353 L47.7985294,28.9507353 L47.7985294,26.0926471 L45.8132353,26.0926471 L45.8132353,37.6970588 L47.7985294,37.6970588 L47.7985294,32.4161765 C48.0835014,32.0109595 48.4100287,31.6366237 48.7727941,31.2992647 C49.0317019,31.0457224 49.3767383,30.8992001 49.7389706,30.8889706 C50.4129902,30.8889706 50.75,31.3460784 50.75,32.2602941 L50.75,37.6970588 L52.7397059,37.6970588 L52.7397059,37.6948529 Z M61.9683824,31.3875 C61.8221486,30.9512952 61.5862043,30.5505407 61.2757353,30.2110294 C60.9592369,29.87442 60.5719881,29.6122359 60.1419118,29.4433824 C59.6457439,29.2517759 59.1170793,29.1583794 58.5852941,29.1683824 C58.0315475,29.1604042 57.4825001,29.2709658 56.975,29.4926471 C56.5018782,29.7029324 56.0823696,30.0173754 55.7477941,30.4125 C55.3973205,30.8338191 55.1316562,31.3189561 54.9654412,31.8411765 C54.774094,32.4396676 54.680491,33.0650946 54.6882353,33.6933824 C54.6771517,34.3069755 54.7709003,34.9179577 54.9654412,35.5 C55.1319562,35.9901543 55.404907,36.4373717 55.7647059,36.8095588 C56.1228237,37.1690977 56.5577224,37.4428575 57.0367647,37.6102941 C57.581941,37.7983424 58.1557267,37.8899092 58.7323529,37.8808824 C58.9818627,37.8808824 59.2401961,37.8713235 59.5073529,37.8522059 C59.7745098,37.8330882 60.0379902,37.8044118 60.2977941,37.7661765 C60.5590686,37.7279412 60.8144608,37.6840686 61.0639706,37.6345588 C61.3139706,37.5852941 61.5455882,37.5308824 61.7573529,37.4705882 L61.7573529,35.8823529 C61.2884735,36.0195295 60.8102565,36.1224961 60.3264706,36.1904412 C59.8984928,36.2514141 59.4668525,36.2831054 59.0345588,36.2852941 C58.7119102,36.2895497 58.3908196,36.2398452 58.0845588,36.1382353 C57.8118743,36.0475859 57.5613389,35.9005216 57.3492647,35.7066176 C57.1408837,35.5110664 56.979278,35.2710456 56.8764706,35.0044118 C56.7596579,34.6949407 56.7030064,34.3660125 56.7095588,34.0352941 L62.1551471,34.0352941 C62.1713235,33.8441176 62.1835784,33.6389706 62.1919118,33.4198529 C62.2002451,33.2007353 62.2044118,33.0227941 62.2044118,32.8860294 C62.2100385,32.37756 62.130253,31.8717544 61.9683824,31.3897059 L61.9683824,31.3875 Z M56.7426471,32.5948529 C56.7662675,32.0690047 56.9674033,31.5666836 57.3132353,31.1698529 C57.6326885,30.8336002 58.0805509,30.6498 58.5441176,30.6647059 C58.7628623,30.6629163 58.9800331,30.7018126 59.1845588,30.7794118 C59.3827791,30.8561375 59.5610222,30.9768098 59.7058824,31.1323529 C59.8647617,31.3068356 59.9856948,31.5123968 60.0610294,31.7360294 C60.152573,32.0124886 60.1939107,32.3030974 60.1830882,32.5941176 L56.7426471,32.5941176 L56.7426471,32.5948529 Z M71.0661765,37.6948529 L71.0661765,31.9955882 C71.0747648,31.5745666 71.0057205,31.1555649 70.8625,30.7595588 C70.7327142,30.4152837 70.5149349,30.1110518 70.2308824,29.8772059 C69.9103289,29.624691 69.5391787,29.4441315 69.1426471,29.3477941 C68.6252297,29.2211666 68.0936321,29.161853 67.5610294,29.1713235 C67.0179902,29.1697605 66.4761307,29.2219761 65.9433824,29.3272059 C65.4745322,29.4166427 65.0147933,29.5485592 64.5698529,29.7213235 L64.5698529,31.3235294 C65.0138024,31.121262 65.4765691,30.963148 65.9514706,30.8514706 C66.4256686,30.7394565 66.9112811,30.6829497 67.3985294,30.6830882 C67.6627514,30.6770598 67.9264058,30.7102644 68.1808824,30.7816176 C68.3705156,30.8363649 68.5460871,30.9314243 68.6955882,31.0602941 C68.8281778,31.1801161 68.9276939,31.332049 68.9845588,31.5014706 C69.0464795,31.6880208 69.0767988,31.8836051 69.0742647,32.0801471 L69.0742647,32.5816176 L67.9897059,32.5816176 C67.386997,32.5718813 66.7855947,32.640846 66.2007353,32.7867647 C65.7467172,32.8992081 65.3160977,33.0908711 64.9286765,33.3529412 C64.6079664,33.5726764 64.347352,33.8691854 64.1705882,34.2154412 C64.0036297,34.5552777 63.9185172,34.9294704 63.9220588,35.3080882 C63.9179462,35.665247 63.9743823,36.0205207 64.0889706,36.3588235 C64.1920302,36.662698 64.3604427,36.94029 64.5823529,37.1720588 C64.8109432,37.4035196 65.0868461,37.5828565 65.3911765,37.6977941 C65.7484395,37.8298098 66.1272907,37.8936583 66.5080882,37.8860294 C66.8048427,37.8886124 67.1009084,37.857032 67.3904412,37.7919118 C67.8941934,37.6765962 68.3643478,37.4460493 68.7639706,37.1183824 C68.9570748,36.9588736 69.1395699,36.78694 69.3102941,36.6036765 L69.3588235,37.6963235 L71.0625,37.6963235 L71.0661765,37.6948529 Z M69.0808824,35.1213235 C68.7835748,35.4452231 68.4530874,35.7370181 68.0948529,35.9919118 C67.8437305,36.1778211 67.5423687,36.2836565 67.2301471,36.2955882 C66.9119432,36.313417 66.597581,36.2189522 66.3419118,36.0286765 C66.1174775,35.8355896 65.996615,35.5484049 66.0154412,35.2529412 C66.0144482,35.0871537 66.0493134,34.9231117 66.1176471,34.7720588 C66.1907015,34.6148198 66.3013019,34.4779583 66.4397059,34.3735294 C66.6104268,34.246971 66.8042659,34.1550473 67.0102941,34.1029412 C67.2898751,34.0318445 67.5777538,33.9987038 67.8661765,34.0044118 L69.0808824,34.0044118 L69.0808824,35.1213235 Z M76.0264706,36.1316176 L73.4014706,36.1316176 L73.4014706,37.6919118 L80.4536765,37.6919118 L80.4536765,36.1316176 L78.0647059,36.1316176 L78.0647059,26.0926471 L73.6808824,26.0926471 L73.6808824,27.6529412 L76.0205882,27.6529412 L76.0205882,36.1367647 L76.0264706,36.1316176 Z M89.3639706,36.0080882 C89.1090686,36.0796569 88.8264706,36.1426471 88.5161765,36.1970588 C88.2005542,36.2522864 87.8807115,36.279842 87.5602941,36.2794118 C87.1602689,36.3186944 86.76256,36.1848758 86.4676471,35.9117647 C86.2294785,35.6042578 86.1134575,35.2195289 86.1419118,34.8316176 L86.1419118,30.9058824 L89.3617647,30.9058824 L89.3617647,29.3529412 L86.1419118,29.3529412 L86.1419118,26.6838235 L84.1036765,27.2176471 L84.1036765,29.35 L81.8779412,29.35 L81.8779412,30.9102941 L84.1036765,30.9102941 L84.1036765,34.9838235 C84.0945033,35.4246592 84.1563228,35.8640992 84.2867647,36.2852941 C84.3964069,36.6291557 84.592941,36.9388995 84.8573529,37.1845588 C85.1387913,37.4327574 85.4737042,37.6126693 85.8360294,37.7102941 C86.2942863,37.8332049 86.767539,37.8911239 87.2419118,37.8823529 C87.5882678,37.8810757 87.934146,37.8565105 88.2772059,37.8088235 C88.6419118,37.7598039 89.0034314,37.6941176 89.3617647,37.6117647 L89.3617647,36.0102941 L89.3639706,36.0080882 Z M98.6411765,37.6919118 L98.6411765,32.0911765 C98.6461334,31.6844165 98.5926462,31.2790529 98.4823529,30.8875 C98.3881248,30.5517399 98.2259519,30.2389063 98.0058824,29.9683824 C97.7914286,29.7135106 97.5205428,29.5121085 97.2147059,29.3801471 C96.8638063,29.233566 96.4860741,29.1621776 96.1058824,29.1705882 C95.8452747,29.1680457 95.5853109,29.1969305 95.3316176,29.2566176 C95.1043002,29.3116806 94.8850738,29.3959604 94.6794118,29.5073529 C94.4755542,29.6186915 94.2865613,29.7553099 94.1169118,29.9139706 C93.9337199,30.0847669 93.7617909,30.2672572 93.6022059,30.4602941 L93.7,28.9492647 L93.7,26.0926471 L91.7147059,26.0926471 L91.7147059,37.6970588 L93.7,37.6970588 L93.7,32.4161765 C93.9851906,32.011131 94.3116989,31.636817 94.6742647,31.2992647 C94.9332543,31.0458451 95.2782403,30.8993442 95.6404412,30.8889706 C96.3144608,30.8889706 96.6514706,31.3460784 96.6514706,32.2602941 L96.6514706,37.6970588 L98.6404412,37.6970588 L98.6411765,37.6919118 Z" id="zhiyihealth" fill="#FFFFFF"></path>
                    <path d="M91.7691176,3.62279412 L91.7691176,5.10882353 L97.7985294,5.10882353 L97.7985294,8.36029412 L99.9308824,8.36029412 L99.9308824,9.84632353 L97.7985294,9.84632353 L97.7985294,10.4963235 C97.8598039,12.2933824 96.9943627,13.1602941 95.2022059,13.0970588 L91.7691176,13.0970588 L91.7691176,13.6544118 C92.6183497,14.6868321 93.5487649,15.6497036 94.5514706,16.5338235 C94.914088,15.6323063 95.1934392,14.6994945 95.3860294,13.7470588 L97.4264706,13.7470588 C97.2228385,14.8944521 96.814367,15.9958309 96.2205882,16.9985294 L95.2007353,16.9985294 C96.5081578,17.9967233 97.9843104,18.7518599 99.5588235,19.2279412 L99.5588235,20.7139706 C96.0323529,19.6007353 93.4357843,18.1458333 91.7691176,16.3492647 L91.7691176,18.5786765 C91.8303922,20.4365196 90.9029412,21.3345588 88.9867647,21.2727941 L87.4102941,21.2727941 L87.4102941,19.6926471 L88.2397059,19.6926471 C89.104902,19.7539216 89.5068627,19.3823529 89.4455882,18.5779412 L89.4455882,13.0977941 L83.7882353,13.0977941 L83.7882353,11.6117647 L89.4455882,11.6117647 L89.4455882,9.84705882 L82.6757353,9.84705882 L82.6757353,10.4970588 C82.7742843,12.7584513 82.4921709,15.0203298 81.8411765,17.1882353 C81.0935641,18.863648 79.9472172,20.3305984 78.5022059,21.4610294 L78.5022059,19.6 C79.8615196,17.8671569 80.479902,14.9566176 80.3573529,10.8683824 L80.3573529,1.57867647 L88.7036765,1.57867647 L88.7036765,0 L91.4860294,0 L91.4860294,1.57941176 L99.3683824,1.57941176 L99.3683824,3.16176471 L82.6772059,3.16176471 L82.6772059,8.36029412 L89.4470588,8.36029412 L89.4470588,6.59558824 L83.975,6.59558824 L83.975,5.10882353 L89.4463235,5.10882353 L89.4463235,3.62279412 L91.7691176,3.62279412 Z M91.7691176,11.6117647 L94.3654412,11.6117647 C94.7311789,11.7058017 95.1193798,11.5994952 95.3861803,11.3322415 C95.6529807,11.0649878 95.7586282,10.676607 95.6639706,10.3110294 L95.6639706,9.84632353 L91.7669118,9.84632353 L91.7669118,11.6110294 L91.7691176,11.6117647 Z M91.7691176,8.36029412 L95.6661765,8.36029412 L95.6661765,6.59558824 L91.7691176,6.59558824 L91.7691176,8.36029412 Z M72.6323529,7.05882353 C72.6931373,8.85588235 71.8276961,9.72279412 70.0360294,9.65955882 L68.7375,9.65955882 L68.7375,11.4242647 L72.9110294,11.4242647 L72.9110294,12.8176471 L68.7375,12.8176471 L68.7375,14.8610294 L73.2816176,14.8610294 L73.2816176,16.2580882 L68.7375,16.2580882 L68.7375,18.4852941 L66.6955882,18.4852941 L66.6955882,16.2558824 L62.8933824,16.2558824 L62.8933824,14.8588235 L66.6955882,14.8588235 L66.6955882,12.8191176 L63.45,12.8191176 L63.45,11.4257353 L66.6955882,11.4257353 L66.6955882,9.66102941 L63.6367647,9.66102941 L63.6367647,8.26397059 L66.6955882,8.26397059 L66.6955882,6.31691176 L62.7080882,6.31691176 L62.7080882,4.92647059 L66.6955882,4.92647059 L66.6955882,3.06544118 L63.7279412,3.06544118 L63.7279412,1.66838235 L66.6955882,1.66838235 L66.6955882,0 L68.7360294,0 L68.7360294,1.67205882 L72.6330882,1.67205882 L72.6330882,4.92647059 L73.9316176,4.92647059 L73.9316176,6.32352941 L72.6330882,6.32352941 L72.6330882,7.05882353 L72.6323529,7.05882353 Z M70.7779412,3.06470588 L68.7375,3.06470588 L68.7375,4.92647059 L70.7779412,4.92647059 L70.7779412,3.06544118 L70.7779412,3.06470588 Z M70.7779412,7.05882353 L70.7779412,6.31691176 L68.7375,6.31691176 L68.7375,8.26764706 L69.5720588,8.26764706 C69.9124086,8.35872404 70.2754883,8.26113634 70.5243162,8.01170157 C70.7731441,7.7622668 70.869847,7.39895047 70.7779412,7.05882353 Z M62.6161765,8.17352941 L62.6161765,12.725 C62.7138327,14.527173 62.3295759,16.3228246 61.5029412,17.9272059 C62.3681373,18.732598 63.8210784,19.135049 65.8617647,19.1345588 L73.7448529,19.1345588 L73.7448529,20.6205882 L65.7698529,20.6205882 C63.8580953,20.7721191 61.9539848,20.2460484 60.3911765,19.1345588 C59.3475824,19.9767141 58.2300517,20.722883 57.0522059,21.3639706 L57.0522059,19.7860294 C57.1663414,19.6825307 57.2893651,19.5892787 57.4198529,19.5073529 C58.0921813,19.0480429 58.7138074,18.5186008 59.2742647,17.9279412 C58.285049,16.5063725 57.6051471,14.3698529 57.2345588,11.5183824 L58.9036765,11.5183824 C59.0966839,13.1536953 59.5344177,14.7507049 60.2022059,16.2558824 C60.6081657,15.2230401 60.7668066,14.1095324 60.6654412,13.0044118 L60.6654412,9.66102941 L57.6088235,9.66102941 L57.6088235,8.17426471 C58.9876564,6.76660271 60.0610379,5.08944402 60.7617647,3.24779412 L57.8875,3.24779412 L57.8875,1.67205882 L62.9875,1.67205882 L62.9875,3.25147059 C62.2041858,5.11725466 61.0349514,6.79618117 59.5566176,8.17794118 L62.6169118,8.17794118 L62.6161765,8.17352941 Z M56.4014706,21.3654412 L54.2691176,21.3654412 L54.2691176,7.43161765 C53.6369426,7.91012324 52.9523965,8.31517717 52.2286765,8.63897059 L52.2286765,7.15220588 C54.1443627,5.60514706 55.2882353,3.25220588 55.6602941,0.0933823529 L57.8860294,0.0933823529 C57.6425026,1.7403546 57.1415323,3.33879478 56.4014706,4.83014706 L56.4014706,21.3654412 Z M47.1926471,17.9279412 C43.4828431,17.0612745 40.9789216,15.6370098 39.6808824,13.6551471 C38.5681373,15.5129902 35.9404412,16.9372549 31.7977941,17.9279412 L31.7977941,16.5345588 C35.382598,15.4198529 37.4536765,13.8715686 38.0110294,11.8897059 L31.4272059,11.8897059 L31.4272059,10.3110294 L38.2897059,10.3110294 C38.2996212,10.1223621 38.3306984,9.93540561 38.3823529,9.75367647 L38.3823529,6.96691176 L35.0441176,6.96691176 C34.1253751,7.93311989 32.9239337,8.58313908 31.6125,8.82352941 L31.6125,7.61691176 C33.1722246,6.79540256 34.2425514,5.2748438 34.4897059,3.52941176 L36.7154412,3.52941176 C36.5460327,4.16421412 36.3289958,4.78533787 36.0661765,5.3875 L46.0801471,5.3875 L46.0801471,6.96691176 L40.7007353,6.96691176 L40.7007353,9.19632353 C40.7000966,9.56978823 40.6691123,9.94258355 40.6080882,10.3110294 L47.0051471,10.3110294 L47.0051471,11.8897059 L40.9757353,11.8897059 C42.0884804,14.0578431 44.1595588,15.6061275 47.1889706,16.5345588 L47.1889706,17.9279412 L47.1926471,17.9279412 Z M27.8102941,17.4632353 L27.8102941,0.928676471 L47.4705882,0.928676471 L47.4705882,2.60073529 L30.3147059,2.60073529 L30.3147059,17.4639706 C30.252451,18.5786765 30.8088235,19.1360294 31.9838235,19.1360294 L47.7492647,19.1360294 L47.7492647,20.6220588 L31.1492647,20.6220588 C28.8610294,20.6828431 27.7480392,19.6301471 27.8102941,17.4639706 L27.8102941,17.4632353 Z M10.6242647,21.4580882 L10.6242647,19.7860294 C12.4786765,18.5477941 14.5801471,17.2779412 15.6323529,15.7919118 C14.7661765,14.5536765 13.3448529,12.5102941 12.85,10.5904412 L12.85,7.61691176 C12.85,7.61691176 12.7889706,6.37647059 12.7764706,4.64411765 L14.8897059,4.64411765 L14.8897059,10.5882353 C15.2805819,12.0057999 16.0500058,13.2902066 17.1154412,14.3036765 C17.4977941,13.5977941 18.5992647,10.5882353 18.5992647,10.5882353 L18.5992647,3.16176471 L15.6323529,3.16176471 L15.6323529,1.67205882 L19.3426471,1.67205882 C19.7554968,1.5981045 20.1783659,1.73132018 20.4742806,2.02855522 C20.7701952,2.32579027 20.9015269,2.74924831 20.8257353,3.16176471 C20.8257353,4.43897059 20.8036765,9.49926471 20.8036765,10.7066176 C20.4794118,12.3323529 17.8117647,16.2389706 18.1360294,15.7948529 C19.4345588,17.4058824 20.2066176,18.7066176 21.9382353,19.6963235 L21.9382353,21.4610294 C19.8636127,20.3867941 17.9830635,18.9734621 16.3742647,17.2794118 C15.3845588,18.4558824 13.3441176,19.9095588 10.6242647,21.4580882 Z M3.01911765,7.52426471 C4.78524269,7.5430106 6.5507832,7.4499323 8.30514706,7.24558824 C8.0146917,6.32938695 7.67372864,5.42997109 7.28382353,4.55147059 L9.13897059,4.55147059 C9.98583508,6.29270372 10.6091598,8.13401923 10.9941176,10.0316176 L8.95514706,10.0316176 C8.89803343,9.62149686 8.80477834,9.21722745 8.67647059,8.82352941 C6.05989592,9.12172642 3.42640182,9.24577404 0.793382353,9.19485294 L0.793382353,7.52426471 C2.10768204,6.15582919 3.14663584,4.54747279 3.85367647,2.78676471 L0.608823529,2.78676471 L0.608823529,1.11470588 L11.0882353,1.11470588 L11.0882353,2.78676471 L6.26544118,2.78676471 C5.4556582,4.53623575 4.35834604,6.13759074 3.01911765,7.52426471 Z M4.68823529,13.9338235 L0.886764706,13.9338235 L0.886764706,12.3529412 L4.68897059,12.3529412 L4.68897059,10.0323529 L7.00735294,10.0323529 L7.00735294,12.3529412 L10.8132353,12.3529412 L10.8132353,13.9338235 L7.00735294,13.9338235 L7.00735294,18.2066176 C8.36666667,18.0208333 9.78823529,17.7730392 11.2720588,17.4632353 L11.2720588,18.9492647 C7.69905586,19.8635885 4.01506701,20.2700328 0.328676471,20.1566176 L0.328676471,18.4852941 C1.99779412,18.4852941 3.45073529,18.4541667 4.6875,18.3919118 L4.6875,13.9338235 L4.68823529,13.9338235 Z M85.2764706,16.9066176 C84.7307435,15.9474471 84.3249237,14.9151938 84.0713235,13.8411765 L86.1073529,13.8411765 C86.3039656,14.8039029 86.615511,15.7395264 87.0352941,16.6279412 C87.3552185,16.4608447 87.664842,16.2747268 87.9625,16.0705882 C88.3941176,15.8235294 88.7044118,15.6382353 88.8897059,15.5132353 L88.8897059,17.1852941 C87.0356729,18.6339722 84.8811346,19.6496903 82.5838235,20.1580882 L82.5838235,18.3 C83.9379041,18.005189 85.2479049,17.5355661 86.4808824,16.9029412 L85.275,16.9029412 L85.2764706,16.9066176 Z" id="致医健康" fill="#FFFFFF"></path>
                    <path d="M13.4066176,0.928676471 L14.1485294,0.928676471 C14.3454917,0.928871386 14.5343095,1.00730133 14.6734449,1.14671258 C14.8125804,1.28612384 14.8906363,1.47509655 14.8904412,1.67205882 L14.8904412,3.16176471 C14.8906363,3.35872698 14.8125804,3.54769969 14.6734449,3.68711095 C14.5343095,3.8265222 14.3454917,3.90495214 14.1485294,3.90514706 L13.4066176,3.90514706 C13.2096554,3.90495214 13.0208376,3.8265222 12.8817021,3.68711095 C12.7425667,3.54769969 12.6645108,3.35872698 12.6647059,3.16176471 L12.6647059,1.67205882 C12.6645108,1.47509655 12.7425667,1.28612384 12.8817021,1.14671258 C13.0208376,1.00730133 13.2096554,0.928871386 13.4066176,0.928676471 Z" id="圆角矩形_1" fill="#F91313"></path>
                </g>
            </g>
        </g>
    </g>
</svg>