<?xml version="1.0" encoding="UTF-8"?>
<svg width="293px" height="59px" viewBox="0 0 293 59" version="1.1" xmlns="http://www.w3.org/2000/svg" xmlns:xlink="http://www.w3.org/1999/xlink">
    <!-- Generator: Sketch 52.1 (67048) - http://www.bohemiancoding.com/sketch -->
    <title>Solution</title>
    <desc>Created with Sketch.</desc>
    <g id="Page-1" stroke="none" stroke-width="1" fill="none" fill-rule="evenodd">
        <g id="1-1-copy" transform="translate(-810.000000, -992.000000)" fill="#EDF1F0">
            <g id="解决方案" transform="translate(430.000000, 946.000000)">
                <g id="分组-3" transform="translate(380.000000, 46.000000)">
                    <path d="M48.56,7.68 L39.28,15.84 C36.88,12.88 33.76,12.16 30,12.16 C24.56,12.16 21.44,15.52 21.44,18.4 C21.44,21.44 24,22.08 26.32,22.72 L30.64,23.84 C40.64,26.4 43.92,31.04 43.92,39.2 C43.92,52.96 32.48,58.48 20.32,58.48 C10.8,58.48 5.12,56.32 0.16,50.64 L9.76,42.24 C12.56,45.44 16.56,46.72 21.52,46.72 C26.72,46.72 30.56,43.84 30.56,40.56 C30.56,37.52 28.88,36.48 25.76,35.68 L21.44,34.56 C9.92,31.6 8.16,24.96 8.16,20.56 C8.16,8.08 17.84,0.56 31.52,0.56 C38.64,0.56 44.96,3.04 48.56,7.68 Z M86.64,28.72 C86.64,31.36 86.16,34.48 85.76,36.48 C84.16,45.04 82.24,49.44 78.32,53.36 C75.28,56.4 70.56,58.48 64.64,58.48 C57.2,58.48 49.68,53.92 49.68,44.24 C49.68,41.6 50.16,38.48 50.56,36.48 C52.16,27.92 54.08,23.52 58,19.6 C61.04,16.56 65.76,14.48 71.68,14.48 C79.12,14.48 86.64,19.04 86.64,28.72 Z M74.24,30.24 C74.24,27.44 72.96,25.76 70.4,25.76 C68.8,25.76 67.52,26.24 66.56,27.2 C64.8,28.88 63.84,32.08 62.96,36.48 C62.16,40.72 62.08,42.16 62.08,42.72 C62.08,45.52 63.36,47.2 65.92,47.2 C67.52,47.2 68.8,46.72 69.76,45.76 C71.52,44.08 72.48,40.88 73.36,36.48 C74.16,32.24 74.24,30.8 74.24,30.24 Z M112.96,1.04 L104.32,44.4 C104.24,44.88 104.16,45.12 104.16,45.6 C104.16,46.8 104.96,47.44 106.48,47.44 L111.04,47.44 L108.88,58 L102.72,58 C95.6,58 91.52,53.6 91.52,48 C91.52,46.72 91.6,45.68 91.84,44.48 L100.48,1.04 L112.96,1.04 Z M158.8,14.96 L150.24,58 L138.32,58 L139.04,54.24 C136.32,56.96 132.24,58.48 128.48,58.48 C124.24,58.48 117.92,55.6 117.92,46.64 C117.92,44.88 118.16,43.12 118.48,41.68 L123.84,14.96 L136.32,14.96 L131.12,40.96 C130.96,41.68 130.88,42.48 130.88,43.12 C130.88,46 132.88,47.2 134.48,47.2 C137.36,47.2 140.16,45.76 141.12,40.96 L146.32,14.96 L158.8,14.96 Z M187.76,16.64 L185.84,26.32 L179.44,26.32 L175.84,44.56 C175.76,44.88 175.76,45.44 175.76,45.52 C175.76,46.96 176.72,47.52 178.24,47.52 L182.16,47.52 L180.08,58 L174.24,58 C167.12,58 163.04,53.6 163.04,48 C163.04,46.4 163.2,45.28 163.36,44.48 L166.96,26.32 L163.2,26.32 L165.12,16.64 L168.88,16.64 L171.36,4.32 L183.84,4.32 L181.36,16.64 L187.76,16.64 Z M211.44,1.04 L209.52,10.72 L197.04,10.72 L198.96,1.04 L211.44,1.04 Z M208.32,16.64 L200.08,58 L187.6,58 L195.84,16.64 L208.32,16.64 Z M248.32,28.72 C248.32,31.36 247.84,34.48 247.44,36.48 C245.84,45.04 243.92,49.44 240,53.36 C236.96,56.4 232.24,58.48 226.32,58.48 C218.88,58.48 211.36,53.92 211.36,44.24 C211.36,41.6 211.84,38.48 212.24,36.48 C213.84,27.92 215.76,23.52 219.68,19.6 C222.72,16.56 227.44,14.48 233.36,14.48 C240.8,14.48 248.32,19.04 248.32,28.72 Z M235.92,30.24 C235.92,27.44 234.64,25.76 232.08,25.76 C230.48,25.76 229.2,26.24 228.24,27.2 C226.48,28.88 225.52,32.08 224.64,36.48 C223.84,40.72 223.76,42.16 223.76,42.72 C223.76,45.52 225.04,47.2 227.6,47.2 C229.2,47.2 230.48,46.72 231.44,45.76 C233.2,44.08 234.16,40.88 235.04,36.48 C235.84,32.24 235.92,30.8 235.92,30.24 Z M292.16,26.32 C292.16,28.08 291.92,29.84 291.6,31.28 L286.24,58 L273.76,58 L278.96,32 C279.12,31.28 279.2,30.48 279.2,29.84 C279.2,26.96 277.2,25.76 275.6,25.76 C272.72,25.76 269.92,27.2 268.96,32 L263.76,58 L251.28,58 L259.84,14.96 L271.76,14.96 L271.04,18.72 C273.76,16 277.84,14.48 281.6,14.48 C285.84,14.48 292.16,17.36 292.16,26.32 Z" id="Solution"></path>
                </g>
            </g>
        </g>
    </g>
</svg>