<?xml version="1.0" encoding="UTF-8"?>
<svg width="24px" height="24px" viewBox="0 0 24 24" version="1.1" xmlns="http://www.w3.org/2000/svg" xmlns:xlink="http://www.w3.org/1999/xlink">
    <!-- Generator: Sketch 52.1 (67048) - http://www.bohemiancoding.com/sketch -->
    <title>weibo</title>
    <desc>Created with Sketch.</desc>
    <g id="Page-1" stroke="none" stroke-width="1" fill="none" fill-rule="evenodd" opacity="0.5">
        <g id="1-1-copy" transform="translate(-796.000000, -2372.000000)" fill="#FFFFFF" fill-rule="nonzero">
            <g id="foot" transform="translate(0.000000, 2242.000000)">
                <g id="关注我们" transform="translate(796.000000, 82.000000)">
                    <g id="weibo" transform="translate(0.000000, 48.000000)">
                        <path d="M17.6780026,11.3875748 C17.4051059,11.33289 17.2279241,11.2511347 17.1464573,11.1423089 C17.0649904,11.0334832 17.0513192,10.9334007 17.1054437,10.8420615 L17.1874709,10.7058934 C17.2055014,10.6878628 17.2238285,10.6605204 17.2424524,10.6238661 C17.2610762,10.5872118 17.2974503,10.509824 17.3515748,10.3917028 C17.4056992,10.2735817 17.4467211,10.1554605 17.4746404,10.0373393 C17.5025596,9.91921805 17.5252461,9.77375444 17.5426997,9.60094843 C17.5601534,9.42814241 17.5555057,9.2643434 17.5287566,9.10955139 C17.5020075,8.95475938 17.4473062,8.78659283 17.3646527,8.60505174 C17.2819992,8.42351066 17.1682373,8.25971165 17.023367,8.11365471 C16.7685172,7.85880496 16.4365517,7.69500595 16.0274703,7.62225767 C15.6183889,7.54950939 15.2093158,7.54486168 14.8002509,7.60831452 C14.391186,7.67176737 14.004824,7.75352267 13.641165,7.85358042 C13.277506,7.95363817 12.977547,8.04907292 12.7412882,8.13988465 L12.3869246,8.30398855 C12.2048066,8.35867338 12.0546788,8.39504752 11.9365412,8.413111 C11.8184035,8.43117447 11.7273445,8.42652675 11.6633643,8.39916785 C11.599384,8.37180894 11.5493386,8.34446653 11.5132282,8.31714061 C11.4771178,8.28981469 11.4634466,8.22609814 11.4722146,8.12599095 C11.4809826,8.02588377 11.4899979,7.93948075 11.4992603,7.8667819 C11.5085228,7.79408306 11.5312092,7.68032115 11.5673197,7.52549619 C11.6034302,7.37067124 11.6307726,7.24789408 11.6493469,7.15716473 C11.6493469,6.93896932 11.6356757,6.73444512 11.6083333,6.54359211 C11.5809909,6.35273911 11.5219303,6.13919141 11.4311515,5.90294901 C11.3403727,5.66670662 11.2085721,5.47584538 11.0357496,5.33036531 C10.8629271,5.18488523 10.6447152,5.06676403 10.3811139,4.97600171 C10.1175126,4.8852394 9.77652357,4.85789698 9.35814676,4.89397448 C8.93976995,4.93005197 8.46698851,5.03914967 7.93980242,5.22126759 C7.30323021,5.43946299 6.65764273,5.76211664 6.00303999,6.18922852 C5.34843725,6.6163404 4.78023755,7.06176296 4.29844088,7.52549619 C3.8166442,7.98922943 3.37558094,8.43931619 2.97525109,8.87575647 C2.57492123,9.31219675 2.26565037,9.666857 2.04743849,9.93973721 L1.74719112,10.376128 C1.14727322,11.1581804 0.701850661,11.9402244 0.41092344,12.7222603 C0.119996219,13.5042961 -0.0164521382,14.095207 0.001578367,14.4949929 L0.001578367,15.0675767 C0.110980984,15.9403913 0.37922175,16.7224353 0.806300665,17.4137089 C1.23337958,18.1049824 1.74252693,18.6641669 2.33374272,19.0912622 C2.92495851,19.5183576 3.62059133,19.8820331 4.42064118,20.1822887 C5.22069103,20.4825444 5.98906389,20.7007563 6.72575978,20.8369244 C7.46245566,20.9730926 8.23985201,21.0685274 9.05794883,21.1232287 C10.4038416,21.2326313 11.7994747,21.1281813 13.2448484,20.8098787 C14.690222,20.4915761 16.0358263,19.9414069 17.2816613,19.1593711 C18.5274963,18.3773353 19.4049668,17.4407958 19.914073,16.3497528 C20.2230472,15.7131806 20.3821985,15.112966 20.3915269,14.5491091 C20.4008553,13.9852522 20.3054206,13.5261502 20.1052227,13.1718031 C19.9050248,12.817456 19.6457993,12.5038176 19.3275461,12.230888 C19.009293,11.9579583 18.709334,11.7577934 18.4276693,11.6303932 C18.1460045,11.502993 17.8960909,11.4212378 17.6779285,11.3851273 L17.6780026,11.3875748 Z M9.35913565,19.870521 C7.39529452,19.9612998 5.72703657,19.5792971 4.3543618,18.724513 C2.98168702,17.8697289 2.29536611,16.7877259 2.29539906,15.4785039 C2.29539906,14.187329 2.97736068,13.0736078 4.34128391,12.1373403 C5.70520715,11.2010728 7.37811282,10.6872695 9.36000092,10.5959304 C11.341889,10.5045912 13.0147947,10.8318926 14.3787179,11.5778345 C15.7426412,12.3237763 16.4246028,13.3420628 16.4246027,14.6326939 C16.4246027,15.9419323 15.7289699,17.11937 14.3377043,18.1650071 C12.9464386,19.2106442 11.2872042,19.778844 9.36000092,19.8696063 L9.35913565,19.870521 Z M8.56838123,12.3144974 C8.04121161,12.3691822 7.56843016,12.4919594 7.15003686,12.6828288 C6.73164357,12.8736983 6.40434221,13.0919102 6.16813278,13.3374645 C5.93192335,13.5830188 5.73175844,13.8466036 5.56763805,14.1282189 C5.40351766,14.4098343 5.28975576,14.6870985 5.22635234,14.9600117 C5.16294893,15.2329249 5.12192707,15.4828385 5.10328677,15.7097525 C5.08464648,15.9366665 5.07563122,16.1138483 5.07624102,16.2412979 L5.10328677,16.459518 L5.10328677,16.5686405 C5.10328677,16.6233253 5.12161393,16.732423 5.15826825,16.8959336 C5.19492257,17.0594441 5.24496792,17.209572 5.30840431,17.346317 C5.37184069,17.483062 5.47629067,17.6331898 5.62175427,17.7967004 C5.76721786,17.960211 5.94004037,18.0966593 6.14022178,18.2060455 C7.3406509,18.7879329 8.45901983,18.9651147 9.49532855,18.7375909 C10.5316373,18.5100671 11.368086,17.9872567 12.0046747,17.1691599 C12.2595244,16.8601857 12.427691,16.4781831 12.5091743,16.0231519 C12.5906576,15.5681208 12.5723305,15.1090188 12.4541928,14.6458459 C12.3360552,14.182673 12.131531,13.7599369 11.8406202,13.3776376 C11.5497095,12.9953383 11.1179499,12.6997387 10.5453414,12.4908386 C9.97273303,12.2819386 9.31345786,12.222878 8.56751596,12.3136568 L8.56838123,12.3144974 Z M7.5864277,17.4702726 C7.47702508,17.4883031 7.37257509,17.4929508 7.27307773,17.4842157 C7.17358038,17.4754806 7.08252141,17.4571535 6.99990084,17.4292342 C6.91728026,17.401315 6.83552497,17.3696133 6.75463494,17.3341291 C6.67374492,17.2986449 6.60566907,17.2485996 6.5504074,17.183993 C6.49514573,17.1193865 6.44510038,17.05567 6.40027135,16.9928434 C6.35544232,16.9300168 6.31906818,16.8572768 6.29114893,16.7746233 C6.26322968,16.6919697 6.24955847,16.6055667 6.2501353,16.5154142 C6.2501353,16.3152493 6.3048366,16.1197403 6.41423922,15.9288873 C6.52364184,15.7380343 6.67376965,15.5742353 6.86462265,15.4374903 C7.05547565,15.3007453 7.26902334,15.2233575 7.50526572,15.205327 C7.6687763,15.1872965 7.8279276,15.1919442 7.98271961,15.2192702 C8.13751162,15.2465961 8.26931227,15.2919855 8.37812156,15.3554383 C8.48693085,15.4188912 8.58236559,15.4916312 8.66442579,15.5736585 C8.74648598,15.6556857 8.80554658,15.7511205 8.84160757,15.8599627 C8.87766857,15.968805 8.89599573,16.0869262 8.89658905,16.2143263 C8.89658905,16.4144912 8.83752846,16.6053525 8.71940727,16.78691 C8.60128608,16.9684676 8.44213478,17.1229547 8.24195338,17.2503713 C8.04177198,17.377788 7.82356008,17.450528 7.58731769,17.4685915 L7.5864277,17.4702726 Z M9.9046489,15.5064149 C9.7772158,15.5971937 9.64541516,15.6382156 9.50924698,15.6294805 C9.3730788,15.6207455 9.27764406,15.5616849 9.22294275,15.4522987 L9.16796127,15.3431763 C9.14993076,15.306522 9.14091551,15.2701478 9.14091551,15.2340539 L9.14091551,15.1249314 C9.14091551,15.0702466 9.14993076,15.0248572 9.16796127,14.9887633 L9.22294275,14.8796408 C9.24097325,14.8429865 9.26831567,14.8156441 9.30496999,14.7976136 L9.38699722,14.6884912 C9.53247732,14.5790885 9.67329321,14.5336991 9.80944491,14.552323 C9.9455966,14.5709468 10.0410313,14.6436869 10.0957491,14.7705431 C10.1504339,14.8432914 10.1731204,14.9250467 10.1638085,15.015809 C10.1544966,15.1065713 10.1271542,15.1929743 10.0817813,15.275018 C10.0364083,15.3570617 9.97734773,15.4344495 9.90459945,15.5071813 L9.9046489,15.5064149 Z M19.5877193,9.80515124 C19.6971219,9.80515124 19.7972044,9.77780883 19.8879667,9.723124 C19.978729,9.66843918 20.051469,9.60036333 20.1061868,9.51889646 C20.1609046,9.43742959 20.1972788,9.35102659 20.2153093,9.25968744 C20.2333398,9.24165694 20.242355,9.21431452 20.242355,9.1776602 C20.4605504,7.10441647 19.7331912,5.922331 18.0602773,5.63140378 C17.5691687,5.54062499 17.1144342,5.53160974 16.6960738,5.60435802 C16.5686407,5.60435802 16.459543,5.63605973 16.3687807,5.69946314 C16.2780184,5.76286656 16.2006307,5.84462185 16.1366174,5.94472901 C16.0726042,6.04483618 16.0409025,6.14928618 16.0415123,6.258079 C16.0415123,6.44019693 16.1052289,6.59468403 16.232662,6.72154029 C16.3600951,6.84839655 16.5145822,6.9121131 16.6961233,6.91268995 C18.1147478,6.58509192 18.8784647,7.0398264 18.987274,8.27689337 C19.0239283,8.58586756 19.0056012,8.87681126 18.9322925,9.14972445 C18.9322925,9.33184239 18.9960091,9.48632949 19.1234422,9.61318577 C19.2508753,9.74004205 19.4053624,9.8037586 19.5869035,9.80433543 L19.5877193,9.80515124 Z M19.124258,2.11384947 C18.3241752,1.93173154 17.2511874,1.96810568 15.9052947,2.22297189 C15.8872642,2.22297189 15.868937,2.23198714 15.8503132,2.25001764 L15.8232675,2.30499912 L15.7962217,2.33204486 C15.5960568,2.38672968 15.4322578,2.50049158 15.3048247,2.67333056 C15.1773916,2.84616955 15.113675,3.03265502 15.113675,3.23278699 C15.113675,3.50568371 15.204734,3.73291085 15.3868519,3.91446842 C15.5689698,4.09602599 15.7871817,4.18708495 16.0414876,4.18764531 L16.1235149,4.18764531 C16.1415454,4.18764531 16.1825672,4.17863006 16.2465804,4.16059956 C16.3105936,4.14256905 16.3786695,4.12889785 16.450808,4.11958595 C16.5229464,4.11027405 16.6003342,4.09194689 16.6829713,4.06460447 C16.7656083,4.03726205 16.8383483,4.00991964 16.9011914,3.98257723 C16.9640344,3.95523483 17.0868116,3.94156362 17.2695228,3.9415636 C17.4522341,3.94156358 17.6750937,3.95523479 17.9381017,3.98257723 C18.2011097,4.00991967 18.4920534,4.07799552 18.8109328,4.18680477 C19.1298122,4.29561403 19.4480983,4.43206239 19.7657911,4.59614985 C20.0834839,4.76023731 20.40177,4.98746445 20.7206494,5.27783128 C21.0395289,5.5681981 21.3167931,5.90452296 21.5524422,6.28680584 C22.0255203,7.35980185 22.1165793,8.39642372 21.8256191,9.39667143 C21.8256191,9.41470194 21.8209714,9.4330291 21.8116759,9.45165291 C21.8023805,9.47027673 21.7887093,9.51566612 21.7706623,9.58782109 C21.7526154,9.65997606 21.7342882,9.72805191 21.7156808,9.79204863 C21.6970735,9.85604536 21.6787463,9.93780066 21.6606993,10.0373145 C21.6426524,10.1368284 21.6336371,10.2232314 21.6336536,10.2965236 C21.6336536,10.4600341 21.679043,10.5964825 21.7698218,10.7058686 C21.8606006,10.8152548 21.9743625,10.8926425 22.1111075,10.9380319 C22.2478525,10.9834213 22.4070038,11.0061078 22.5885614,11.0060913 C23.097717,11.0060913 23.3976759,10.6968204 23.4884382,10.0782787 C23.7066336,9.36895818 23.8294108,8.69164428 23.8567697,8.04633701 C23.8841286,7.40102974 23.8387392,6.83283003 23.7206015,6.34173787 C23.6024638,5.85064571 23.425282,5.39154371 23.1890561,4.96443186 C22.9528302,4.53732002 22.6799335,4.17364451 22.370366,3.87340534 C22.0607985,3.57316617 21.7151617,3.30026945 21.3334557,3.05471519 C20.9517497,2.80916093 20.5834182,2.61365198 20.2284613,2.46818833 C19.8735044,2.32272469 19.5051729,2.20460349 19.1234669,2.11382474 L19.124258,2.11384947 Z" id="形状"></path>
                    </g>
                </g>
            </g>
        </g>
    </g>
</svg>