<?xml version="1.0" encoding="UTF-8"?>
<svg width="24px" height="24px" viewBox="0 0 24 24" version="1.1" xmlns="http://www.w3.org/2000/svg" xmlns:xlink="http://www.w3.org/1999/xlink">
    <!-- Generator: Sketch 52.1 (67048) - http://www.bohemiancoding.com/sketch -->
    <title>weixin</title>
    <desc>Created with Sketch.</desc>
    <g id="Page-1" stroke="none" stroke-width="1" fill="none" fill-rule="evenodd" opacity="0.5">
        <g id="1-1-copy" transform="translate(-836.000000, -2372.000000)" fill="#FFFFFF" fill-rule="nonzero">
            <g id="foot" transform="translate(0.000000, 2242.000000)">
                <g id="关注我们" transform="translate(796.000000, 82.000000)">
                    <g id="weixin" transform="translate(40.000000, 48.000000)">
                        <path d="M16.2507215,8.0282552 C12.2201409,8.0282552 9.02712666,11.0855912 9.02706836,14.8669135 C9.02706836,15.4784856 9.11755935,16.0900578 9.29889116,16.6790655 C9.02706836,16.7017466 8.75518725,16.7017466 8.50633702,16.7017466 C7.44178517,16.7017466 6.58136279,16.4747028 5.51727738,16.2710981 L2.57340493,17.7883964 L3.41126286,15.1843316 C1.28274221,13.6670333 0.0146439288,11.7197861 0.0146439288,9.36462986 C0.0146439288,5.24320843 3.84156151,2.00489042 8.50633702,2.00489042 C12.6729457,2.00489042 16.3185314,4.58627416 17.0658401,8.07344239 C16.7940173,8.05087795 16.5225443,8.0282552 16.2507215,8.0282552 Z M11.6763786,5.6737986 C11.0425336,5.6737986 10.4083387,6.1036308 10.4082804,6.76056507 C10.4082804,7.41732441 11.0425336,7.84727322 11.6763786,7.84727322 C12.3105736,7.84727322 12.7408722,7.41738272 12.7408722,6.76056507 C12.7408722,6.1036308 12.3105736,5.6737986 11.6763786,5.6737986 Z M5.74350485,7.84727322 C6.37775806,7.84727322 6.80805671,7.41738272 6.80799841,6.76056507 C6.80799841,6.1036308 6.37775806,5.6737986 5.74350485,5.6737986 C5.10965979,5.6737986 4.47540658,6.1036308 4.47540658,6.76056507 C4.47540658,7.41732441 5.10965979,7.84727322 5.74350485,7.84727322 Z M23.9723666,14.7536831 C23.9723666,16.7017466 22.70421,18.4227079 21.0058714,19.7355853 L21.6401246,21.8871951 L19.3302138,20.5960659 C18.4696748,20.7996124 17.6319335,21.0267727 16.7713362,21.0267727 C12.7408722,21.0267727 9.57042243,18.2182286 9.57042243,14.7536831 C9.57042243,11.3117604 12.7408722,8.48146813 16.7713362,8.48146813 C20.5982538,8.48146813 23.9723666,11.3117604 23.9723666,14.7536831 Z M14.4391525,13.6670333 C15.0729976,13.6670333 15.5032379,13.2597072 15.5032379,12.8064943 C15.5032379,12.3758458 15.0729976,11.9460136 14.4391525,11.9460136 C14.0089122,11.9460136 13.6013529,12.3758458 13.6013529,12.8064943 C13.6013529,13.2597655 14.0089122,13.6670333 14.4391525,13.6670333 Z M19.103928,13.6670333 C19.7378314,13.6670333 20.1680134,13.2597072 20.1680134,12.8064943 C20.1680134,12.3758458 19.7378314,11.9460136 19.103928,11.9460136 C18.6736877,11.9460136 18.2661284,12.3758458 18.2661284,12.8064943 C18.2661284,13.2597655 18.6736877,13.6670333 19.103928,13.6670333 Z" id="合并形状"></path>
                    </g>
                </g>
            </g>
        </g>
    </g>
</svg>