<?xml version="1.0" encoding="UTF-8"?>
<svg width="100px" height="100px" viewBox="0 0 100 100" version="1.1" xmlns="http://www.w3.org/2000/svg" xmlns:xlink="http://www.w3.org/1999/xlink">
    <!-- Generator: Sketch 52.1 (67048) - http://www.bohemiancoding.com/sketch -->
    <title>个人健康</title>
    <desc>Created with Sketch.</desc>
    <g id="Page-1" stroke="none" stroke-width="1" fill="none" fill-rule="evenodd">
        <g id="1-1-copy" transform="translate(-910.000000, -1186.000000)">
            <g id="解决方案" transform="translate(430.000000, 946.000000)">
                <g id="个人健康" transform="translate(458.000000, 240.000000)">
                    <g transform="translate(22.000000, 0.000000)">
                        <g transform="translate(12.000000, 6.000000)">
                            <path d="M20.1858494,35.0018715 L6.07496296,26.7807407 L20.1858494,35.0018715 C20.1858494,35.0018715 20.1858494,35.0018715 20.1858494,35.0018715 Z M55.8258058,55.766034 L71.5327407,64.917037 L55.8258058,55.766034 C55.8258058,55.766034 55.8258058,55.766034 55.8258058,55.766034 Z" id="合并形状" stroke="#4C5254" stroke-width="2" stroke-linecap="round"></path>
                            <path d="M57.1000306,35.1890236 C57.1000306,35.1890236 57.1000306,35.1890236 57.1000306,35.1890236 L71.5321481,26.7807407 L57.1000306,35.1890236 Z M21.4823875,55.9401862 L6.07437037,64.917037 L21.4823875,55.9401862 C21.4823875,55.9401862 21.4823875,55.9401862 21.4823875,55.9401862 Z" id="合并形状" stroke="#4C5254" stroke-width="2" stroke-linecap="round"></path>
                            <path d="M38.6936296,65.0279314 L38.6936296,83.805037 L38.6936296,65.0279314 C38.6936296,65.0279147 38.6936296,65.0279147 38.6936296,65.0279147 Z M38.6936296,23.718752 L38.6936296,7.68059259 L38.6936296,23.718752 C38.6936296,23.718752 38.6936296,23.718752 38.6936296,23.718752 Z" id="合并形状" stroke="#4C5254" stroke-width="2" stroke-linecap="round"></path>
                            <path d="" id="Stroke-4" stroke="#4C5254" stroke-width="2" stroke-linecap="round"></path>
                            <polyline id="Stroke-5" stroke="#4C5254" stroke-width="2" stroke-linecap="round" points="6.07496296 37.1356754 6.07496296 25.1386679 38.6942222 7.68207407 71.5327407 25.1386679 71.5327407 37.3117037"></polyline>
                            <polyline id="Stroke-6" stroke="#4C5254" stroke-width="2" stroke-linecap="round" points="6.07496296 51.7881481 6.07496296 64.917037 38.6942222 83.8059259 71.5327407 64.917037 71.5327407 52.3659259"></polyline>
                            <path d="M71.5777778,45.1851852 L71.6074074,45.1851852" id="Stroke-38" stroke="#4C5254" stroke-width="2" stroke-linecap="round" stroke-linejoin="round"></path>
                            <path d="M6.39259259,45.1851852 L6.42222222,45.1851852" id="Stroke-38" stroke="#4C5254" stroke-width="2" stroke-linecap="round" stroke-linejoin="round"></path>
                            <path d="" id="Stroke-7" stroke="#4C5254" stroke-width="2" stroke-linecap="round"></path>
                            <g id="编组">
                                <path d="M71.3991111,30.6174815 C74.4094815,30.6174815 76.8568889,28.1671111 76.8568889,25.1567407 C76.8568889,22.1493333 74.4094815,19.698963 71.3991111,19.698963 C68.3857778,19.698963 65.9383704,22.1493333 65.9383704,25.1567407 C65.9383704,28.1671111 68.3857778,30.6174815 71.3991111,30.6174815" id="Fill-8" fill="#23BDC3"></path>
                                <path d="M71.3991111,30.6174815 C74.4094815,30.6174815 76.8568889,28.1671111 76.8568889,25.1567407 C76.8568889,22.1493333 74.4094815,19.698963 71.3991111,19.698963 C68.3857778,19.698963 65.9383704,22.1493333 65.9383704,25.1567407 C65.9383704,28.1671111 68.3857778,30.6174815 71.3991111,30.6174815 Z" id="Stroke-10" stroke="#4C5254" stroke-width="2"></path>
                                <path d="M38.5576296,11.5173333 C41.570963,11.5173333 44.0183704,9.06696296 44.0183704,6.05659259 C44.0183704,3.04918519 41.570963,0.598814815 38.5576296,0.598814815 C35.5472593,0.598814815 33.0968889,3.04918519 33.0968889,6.05659259 C33.0968889,9.06696296 35.5472593,11.5173333 38.5576296,11.5173333" id="Fill-12" fill="#23BDC3"></path>
                                <path d="M38.5576296,11.5173333 C41.570963,11.5173333 44.0183704,9.06696296 44.0183704,6.05659259 C44.0183704,3.04918519 41.570963,0.598814815 38.5576296,0.598814815 C35.5472593,0.598814815 33.0968889,3.04918519 33.0968889,6.05659259 C33.0968889,9.06696296 35.5472593,11.5173333 38.5576296,11.5173333 Z" id="Stroke-14" stroke="#4C5254" stroke-width="2"></path>
                                <path d="M5.94192593,30.6174815 C8.9522963,30.6174815 11.3997037,28.1671111 11.3997037,25.1567407 C11.3997037,22.1493333 8.9522963,19.698963 5.94192593,19.698963 C2.92859259,19.698963 0.481185185,22.1493333 0.481185185,25.1567407 C0.481185185,28.1671111 2.92859259,30.6174815 5.94192593,30.6174815" id="Fill-16" fill="#23BDC3"></path>
                                <path d="M5.94192593,30.6174815 C8.9522963,30.6174815 11.3997037,28.1671111 11.3997037,25.1567407 C11.3997037,22.1493333 8.9522963,19.698963 5.94192593,19.698963 C2.92859259,19.698963 0.481185185,22.1493333 0.481185185,25.1567407 C0.481185185,28.1671111 2.92859259,30.6174815 5.94192593,30.6174815 Z" id="Stroke-18" stroke="#4C5254" stroke-width="2"></path>
                                <path d="M5.94192593,69.1345185 C8.9522963,69.1345185 11.3997037,66.6871111 11.3997037,63.6767407 C11.3997037,60.6663704 8.9522963,58.216 5.94192593,58.216 C2.92859259,58.216 0.481185185,60.6663704 0.481185185,63.6767407 C0.481185185,66.6871111 2.92859259,69.1345185 5.94192593,69.1345185" id="Fill-20" fill="#23BDC3"></path>
                                <path d="M5.94192593,69.1345185 C8.9522963,69.1345185 11.3997037,66.6871111 11.3997037,63.6767407 C11.3997037,60.6663704 8.9522963,58.216 5.94192593,58.216 C2.92859259,58.216 0.481185185,60.6663704 0.481185185,63.6767407 C0.481185185,66.6871111 2.92859259,69.1345185 5.94192593,69.1345185 Z" id="Stroke-22" stroke="#4C5254" stroke-width="2"></path>
                                <path d="M38.5576296,88.1478519 C41.570963,88.1478519 44.0183704,85.7004444 44.0183704,82.6871111 C44.0183704,79.6797037 41.570963,77.2293333 38.5576296,77.2293333 C35.5472593,77.2293333 33.0968889,79.6797037 33.0968889,82.6871111 C33.0968889,85.7004444 35.5472593,88.1478519 38.5576296,88.1478519" id="Fill-24" fill="#23BDC3"></path>
                                <path d="M38.5576296,88.1478519 C41.570963,88.1478519 44.0183704,85.7004444 44.0183704,82.6871111 C44.0183704,79.6797037 41.570963,77.2293333 38.5576296,77.2293333 C35.5472593,77.2293333 33.0968889,79.6797037 33.0968889,82.6871111 C33.0968889,85.7004444 35.5472593,88.1478519 38.5576296,88.1478519 Z" id="Stroke-26" stroke="#4C5254" stroke-width="2"></path>
                                <path d="M71.3991111,69.1345185 C74.4094815,69.1345185 76.8568889,66.6871111 76.8568889,63.6767407 C76.8568889,60.6663704 74.4094815,58.216 71.3991111,58.216 C68.3857778,58.216 65.9383704,60.6663704 65.9383704,63.6767407 C65.9383704,66.6871111 68.3857778,69.1345185 71.3991111,69.1345185" id="Fill-28" fill="#23BDC3"></path>
                                <path d="M71.3991111,69.1345185 C74.4094815,69.1345185 76.8568889,66.6871111 76.8568889,63.6767407 C76.8568889,60.6663704 74.4094815,58.216 71.3991111,58.216 C68.3857778,58.216 65.9383704,60.6663704 65.9383704,63.6767407 C65.9383704,66.6871111 68.3857778,69.1345185 71.3991111,69.1345185 Z" id="Stroke-30" stroke="#4C5254" stroke-width="2"></path>
                                <path d="M59.2491852,44.3733333 C59.2491852,55.7807407 50.0017778,65.0281481 38.5943704,65.0281481 C27.1899259,65.0281481 17.9425185,55.7807407 17.9425185,44.3733333 C17.9425185,32.9659259 27.1899259,23.7185185 38.5943704,23.7185185 C50.0017778,23.7185185 59.2491852,32.9659259 59.2491852,44.3733333 Z" id="Stroke-34" stroke="#4C5254" stroke-width="2" stroke-linecap="round"></path>
                                <g transform="translate(25.666667, 51.111111)" id="Stroke-38" stroke="#4C5254" stroke-linecap="round" stroke-width="1.75">
                                    <path d="M0.943703704,9.26785185 C0.943703704,4.26637037 5.03851852,0.171555556 10.04,0.171555556 L15.8177778,0.171555556 C20.8192593,0.171555556 24.9140741,4.26637037 24.9140741,9.26785185"></path>
                                </g>
                                <path d="M38.5952593,51.0254815 C35.0574815,51.0254815 32.1626667,48.1306667 32.1626667,44.5928889 L32.1626667,42.0002963 C32.1626667,38.4625185 35.0574815,35.5677037 38.5952593,35.5677037 C42.133037,35.5677037 45.0278519,38.4625185 45.0278519,42.0002963 L45.0278519,44.5928889 C45.0278519,48.1306667 42.133037,51.0254815 38.5952593,51.0254815 Z" id="Stroke-41" stroke="#4C5254" stroke-width="1.75" stroke-linecap="round"></path>
                            </g>
                        </g>
                    </g>
                </g>
            </g>
        </g>
    </g>
</svg>