<?xml version="1.0" encoding="UTF-8"?>
<svg width="60px" height="60px" viewBox="0 0 60 60" version="1.1" xmlns="http://www.w3.org/2000/svg" xmlns:xlink="http://www.w3.org/1999/xlink">
    <!-- Generator: Sketch 52.1 (67048) - http://www.bohemiancoding.com/sketch -->
    <title>云药房</title>
    <desc>Created with Sketch.</desc>
    <g id="Page-1" stroke="none" stroke-width="1" fill="none" fill-rule="evenodd">
        <g id="2" transform="translate(-660.000000, -904.000000)">
            <g id="分组-11-copy" transform="translate(660.000000, 904.000000)">
                <g id="云药房">
                    <path d="M59.5,29.75 C59.3125,40.28125 58.25,48.74375 53.4,53.4 C48.7375,58.25625 40.275,59.3125 29.75,59.5 C19.21875,59.3125 10.75625,58.25 6.1,53.4 C1.24375,48.7375 0.1875,40.275 0,29.75 C0.1875,19.21875 1.25,10.75625 6.1,6.1 C10.7625,1.24375 19.225,0.1875 29.75,0 C40.28125,0.1875 48.74375,1.25 53.4,6.1 C58.25625,10.75625 59.3125,19.21875 59.5,29.75 Z" id="路径" fill="#39BEA6"></path>
                    <g id="_复合路径_-2" transform="translate(12.000000, 13.714286)" fill="#FFFFFF" fill-rule="nonzero">
                        <path d="M27.6652535,9.22175115 C27.6652535,4.12871862 23.5365348,0 18.4435023,0 C13.3504698,0 9.22175115,4.12871862 9.22175115,9.22175115 C4.12871862,9.22175115 0,13.3504698 0,18.4435023 C0,23.5365348 4.12871862,27.6652535 9.22175115,27.6652535 L10.2801843,27.6652535 C12.0982735,27.6585815 13.5704709,26.1863841 13.5771429,24.3682949 L13.5771429,18.1636866 L10.2680184,18.1636866 C9.71580496,18.1592546 9.2219323,17.8190444 9.02100266,17.3046645 C8.82007303,16.7902846 8.95257868,16.2053954 9.35557604,15.8278341 L17.5310599,8.24847926 C18.0786617,7.74119172 18.9338185,7.77387287 19.441106,8.32147465 C19.9483935,8.86907644 19.9157124,9.7242332 19.3681106,10.2315207 L13.7231336,15.475023 L14.9397235,15.475023 C15.2978758,15.475023 15.641359,15.6172985 15.8946109,15.8705504 C16.1478628,16.1238023 16.2901382,16.4672855 16.2901382,16.8254378 L16.2901382,24.4047926 C16.2834452,27.7145032 13.6020608,30.3958876 10.2923502,30.4025806 C10.2923502,30.4025806 17.0200922,32.397788 21.7282949,27.7017512 L27.6895853,27.7017512 C32.7826178,27.7017512 36.9113364,23.5730325 36.9113364,18.48 C36.9113364,13.3869675 32.7826178,9.25824885 27.6895853,9.25824885 L27.6652535,9.22175115 Z M27.3732719,19.8182488 L25.2199078,19.8182488 L25.2199078,21.9716129 C25.2199078,22.7174264 24.6153066,23.3220276 23.8694931,23.3220276 C23.1236796,23.3220276 22.5190783,22.7174264 22.5190783,21.9716129 L22.5190783,19.8060829 L20.3535484,19.8060829 C19.6077349,19.8060829 19.0031336,19.2014817 19.0031336,18.4556682 C19.0031336,17.7098547 19.6077349,17.1052535 20.3535484,17.1052535 L22.5190783,17.1052535 L22.5190783,14.9397235 C22.5190783,14.19391 23.1236796,13.5893088 23.8694931,13.5893088 C24.6153066,13.5893088 25.2199078,14.19391 25.2199078,14.9397235 L25.2199078,17.1052535 L27.3854378,17.1052535 C28.1312513,17.1052535 28.7358525,17.7098547 28.7358525,18.4556682 C28.7358525,19.2014817 28.1312513,19.8060829 27.3854378,19.8060829 L27.3732719,19.8182488 Z" id="_复合路径_"></path>
                    </g>
                </g>
            </g>
        </g>
    </g>
</svg>