<?xml version="1.0" encoding="UTF-8"?>
<svg width="60px" height="60px" viewBox="0 0 60 60" version="1.1" xmlns="http://www.w3.org/2000/svg" xmlns:xlink="http://www.w3.org/1999/xlink">
    <!-- Generator: Sketch 52.1 (67048) - http://www.bohemiancoding.com/sketch -->
    <title>云诊室</title>
    <desc>Created with Sketch.</desc>
    <g id="Page-1" stroke="none" stroke-width="1" fill="none" fill-rule="evenodd">
        <g id="2" transform="translate(-660.000000, -690.000000)">
            <g id="分组-11" transform="translate(660.000000, 690.000000)">
                <g id="云诊室">
                    <path d="M59.5,29.75 C59.3125,40.28125 58.25,48.74375 53.4,53.4 C48.7375,58.25625 40.275,59.3125 29.75,59.5 C19.21875,59.3125 10.75625,58.25 6.1,53.4 C1.24375,48.7375 0.1875,40.275 0,29.75 C0.1875,19.21875 1.25,10.75625 6.1,6.1 C10.7625,1.24375 19.225,0.1875 29.75,0 C40.28125,0.1875 48.74375,1.25 53.4,6.1 C58.25625,10.75625 59.3125,19.21875 59.5,29.75 Z" id="路径" fill="#51AFC9"></path>
                    <path d="M38.7641832,22.6646684 C38.4442925,22.6646684 38.1490089,22.6891976 37.8291183,22.7137267 C36.4757348,18.4947142 32.5140123,15.4285714 27.8140807,15.4285714 C22.3021189,15.4285714 17.7744361,19.6721131 17.3315106,25.0439952 C12.4101162,25.5345781 8.57142857,29.6800031 8.57142857,34.7084773 C8.57142857,39.5407184 12.1148325,43.5634977 16.7655502,44.299372 C17.0854409,44.3729594 17.4053315,44.4220177 17.7252221,44.4220177 L25.5256323,44.4220177 L25.5256323,38.1425572 L19.2262474,38.1425572 L19.2262474,30.9309894 L25.5256323,30.9309894 L25.5256323,24.6760581 L32.760082,24.6760581 L32.760082,30.9555185 L39.0594668,30.9555185 L39.0594668,38.1670864 L32.760082,38.1670864 L32.760082,44.4465468 L39.6254272,44.4465468 C40.0683527,44.4465468 40.4866712,44.3729594 40.8803828,44.2503137 C45.9002051,43.269148 49.7142857,38.8539024 49.7142857,33.5556076 C49.6896787,27.5459678 44.8174983,22.6646684 38.7641832,22.6646684 Z" id="路径" fill="#FFFFFF" fill-rule="nonzero"></path>
                </g>
            </g>
        </g>
    </g>
</svg>