<?xml version="1.0" encoding="UTF-8"?>
<svg width="100px" height="100px" viewBox="0 0 100 100" version="1.1" xmlns="http://www.w3.org/2000/svg" xmlns:xlink="http://www.w3.org/1999/xlink">
    <!-- Generator: Sketch 52.1 (67048) - http://www.bohemiancoding.com/sketch -->
    <title>供应链</title>
    <desc>Created with Sketch.</desc>
    <defs>
        <path d="M57.513605,55.4467028 L46.0520417,43.9859466 C47.4374218,42.1673245 48.2624777,39.8995678 48.2624777,37.4422707 C48.2624777,36.269051 48.072339,35.1398527 47.7252626,34.081147 L59.5220551,28.3620302 C59.04,25.92 59.04,25.92 58.2428602,25.7320115 L46.446799,31.4508359 C44.7615847,28.9262637 42.0442096,27.1488842 38.9026788,26.7224184 L38.9026788,22.8346474 C40.9329218,22.20855 42.41264,20.3150478 42.41264,18.0823911 C42.41264,15.3406373 40.18202,13.1103207 37.4402194,13.1103207 C34.6984188,13.1103207 32.4677988,15.3407836 32.4677988,18.0823911 C32.4677988,20.3153403 33.947517,22.2088425 35.97776,22.8346474 L35.97776,26.7224184 C34.085587,26.9792339 32.3475726,27.7254027 30.8960827,28.8310548 L21.442092,19.3777298 C23.7473049,16.4224506 24.5621225,12.5071846 23.5636016,8.83820403 C23.3513775,8.05869009 22.5475294,7.59873299 21.7683994,7.81123463 C20.9889768,8.02329752 20.5292798,8.82694276 20.7413576,9.60631045 C21.5911315,12.7286075 20.7056701,16.0865137 18.4313182,18.3803029 C18.4218113,18.3893705 18.4117193,18.3971217 18.4023586,18.4064817 C18.394168,18.4146718 18.3871475,18.4237393 18.3792494,18.4320755 C14.8419376,21.9425208 9.10823071,21.9349158 5.58130334,18.4080905 C2.04589285,14.8730752 2.04589285,9.1209058 5.58130334,5.58574426 C7.81718866,3.34987012 10.9925056,2.4473597 14.0755322,3.17100604 C14.8613902,3.35528138 15.6488571,2.86797548 15.8335842,2.08158778 C16.0181651,1.29534632 15.5303861,0.508373616 14.7440892,0.323659524 C10.6680997,-0.633109746 6.46954378,0.560584963 3.51259384,3.51718043 C-1.16321031,8.19265534 -1.16321031,15.8003019 3.51259384,20.4759231 C5.85056905,22.8137336 8.92145596,23.9825658 11.9924891,23.9825658 C14.6033866,23.9825658 17.2122364,23.1344605 19.3726512,21.4448311 L28.8273732,30.8988874 C27.4421394,32.7175095 26.617376,34.9849737 26.617376,37.4419782 C26.617376,43.4091355 31.4722031,48.2636207 37.4397806,48.2636207 C39.8972507,48.2636207 42.1647283,47.4389155 43.9833322,46.0537792 L55.4450418,57.5145354 C57.6,59.04 57.6,56.16 57.513605,55.4467028 Z M35.3922789,18.0818061 C35.3922789,16.9529003 36.310649,16.0344486 37.4397806,16.0344486 C38.5687659,16.0344486 39.4872823,16.952754 39.4872823,18.0818061 C39.4872823,19.210712 38.5689122,20.1291637 37.4397806,20.1291637 C36.3107953,20.1291637 35.3922789,19.2108582 35.3922789,18.0818061 Z M37.4397806,45.3390541 C33.0850184,45.3390541 29.5422949,41.79658 29.5422949,37.4421245 C29.5422949,33.0876689 33.0850184,29.5451949 37.4397806,29.5451949 C41.7945428,29.5451949 45.3372663,33.0876689 45.3372663,37.4421245 C45.3372663,41.7964338 41.7945428,45.3390541 37.4397806,45.3390541 Z M20.5224056,3.56749053 C21.0909204,4.14137659 21.0865326,5.06728705 20.5124598,5.6356156 C20.227398,5.91817113 19.8553111,6.05915639 19.4833705,6.05915639 C19.1068958,6.05915639 18.7304211,5.91466112 18.4443354,5.62596309 L18.4066002,5.58779177 C17.83399,5.01800071 17.8317961,4.0922365 18.4016273,3.51966669 C18.9716047,2.94709688 19.8974342,2.94504938 20.469898,3.51469418 L20.5224056,3.56749053 Z M8.48238173,71.9552871 C5.41807654,71.9552871 2.92491887,69.462305 2.92491887,66.3982156 C2.92491887,63.3341261 5.41807654,60.841144 8.48238173,60.841144 C11.5466869,60.841144 14.0398446,63.3341261 14.0398446,66.3982156 C14.0398446,69.462305 11.5466869,71.9552871 8.48238173,71.9552871 Z M27.7245685,47.1567987 C27.9964669,47.4286779 28.153112,47.8061499 28.153112,48.1906419 C28.153112,48.5751338 27.9966132,48.9524595 27.7245685,49.224485 C27.4526701,49.4965105 27.0753179,49.6529983 26.6906526,49.6529983 C26.3061335,49.6529983 25.9287813,49.4965105 25.6567366,49.224485 C25.3846919,48.9526058 25.2281931,48.5751338 25.2281931,48.1906419 C25.2281931,47.8061499 25.3846919,47.4288242 25.6567366,47.1567987 C25.928635,46.8847732 26.3061335,46.7282854 26.6906526,46.7282854 C27.0751716,46.7282854 27.4525239,46.8847732 27.7245685,47.1567987 Z" id="path-1"></path>
    </defs>
    <g id="Page-1" stroke="none" stroke-width="1" fill="none" fill-rule="evenodd">
        <g id="1-1-copy" transform="translate(-1356.000000, -1186.000000)">
            <g id="解决方案" transform="translate(430.000000, 946.000000)">
                <g id="供应链" transform="translate(892.000000, 240.000000)">
                    <g transform="translate(34.000000, 0.000000)">
                        <g transform="translate(14.000000, 13.000000)">
                            <g id="编组-2" transform="translate(1.000000, 2.880000)">
                                <path d="M62.3623446,69.12 C67.126654,69.12 71,65.2419647 71,60.4776554 C71,55.7180353 67.126654,51.84 62.3623446,51.84 C57.593346,51.84 53.72,55.7180353 53.72,60.4776554 C53.72,65.2419647 57.593346,69.12 62.3623446,69.12 Z" id="Stroke-18复制" stroke="#4C5254" stroke-width="2" fill="#23BDC3"></path>
                                <path d="M10.5227354,20.16 C16.0810963,20.16 20.6,15.6356255 20.6,10.0772646 C20.6,4.52437449 16.0810963,0 10.5227354,0 C4.95890366,0 0.44,4.52437449 0.44,10.0772646 C0.44,15.6356255 4.95890366,20.16 10.5227354,20.16 Z" id="Stroke-18复制-2" fill="#23BDC3"></path>
                                <path d="M15.2736179,65.761534 L15.2736179,45.4746678" id="Stroke-3" stroke="#4C5254" stroke-width="2" stroke-linecap="round" transform="translate(15.273618, 55.618101) rotate(-315.000000) translate(-15.273618, -55.618101) "></path>
                            </g>
                            <mask id="mask-2" fill="white">
                                <use xlink:href="#path-1"></use>
                            </mask>
                            <use id="network" fill="#4C5254" fill-rule="nonzero" xlink:href="#path-1"></use>
                            <path d="M62.90784,30.7728 C65.83392,30.7728 68.2128,28.39104 68.2128,25.46496 C68.2128,22.54176 65.83392,20.16 62.90784,20.16 C59.97888,20.16 57.6,22.54176 57.6,25.46496 C57.6,28.39104 59.97888,30.7728 62.90784,30.7728 Z" id="Stroke-18" stroke="#4C5254" stroke-width="2" fill="#23BDC3"></path>
                            <path d="M9.09504,71.54784 C12.02112,71.54784 14.4,69.16608 14.4,66.24 C14.4,63.3168 12.02112,60.93504 9.09504,60.93504 C6.16608,60.93504 3.7872,63.3168 3.7872,66.24 C3.7872,69.16608 6.16608,71.54784 9.09504,71.54784 Z" id="Stroke-18" stroke="#4C5254" stroke-width="2" fill="#23BDC3"></path>
                        </g>
                    </g>
                </g>
            </g>
        </g>
    </g>
</svg>