<?xml version="1.0" encoding="UTF-8"?>
<svg width="100px" height="100px" viewBox="0 0 100 100" version="1.1" xmlns="http://www.w3.org/2000/svg" xmlns:xlink="http://www.w3.org/1999/xlink">
    <!-- Generator: Sketch 52.1 (67048) - http://www.bohemiancoding.com/sketch -->
    <title>基层医疗</title>
    <desc>Created with Sketch.</desc>
    <g id="Page-1" stroke="none" stroke-width="1" fill="none" fill-rule="evenodd">
        <g id="1-1-copy" transform="translate(-452.000000, -1186.000000)">
            <g id="解决方案" transform="translate(430.000000, 946.000000)">
                <g id="基岑医疗" transform="translate(0.000000, 240.000000)">
                    <g id="基层医疗" transform="translate(22.000000, 0.000000)">
                        <g id="jcyl" transform="translate(8.000000, 8.000000)">
                            <polyline id="Stroke-1" stroke="#4C5254" stroke-width="2" stroke-linecap="round" stroke-linejoin="round" points="5.93548387 25.5747825 35.407378 39.4429049 79.5981472 27.7685294"></polyline>
                            <path d="M62.069512,18.8794442 L79.5967246,27.7710902" id="Stroke-2" stroke="#4C5254" stroke-width="2" stroke-linecap="round" stroke-linejoin="round"></path>
                            <path d="M57.5568238,16.8845856 L57.5852771,16.8845856" id="Stroke-3" stroke="#4C5254" stroke-width="2" stroke-linecap="round" stroke-linejoin="round"></path>
                            <polyline id="Stroke-4" stroke="#4C5254" stroke-width="2" stroke-linecap="round" stroke-linejoin="round" points="5.93548387 25.5747825 35.6293135 5.46685856 51.9785608 13.7609859"></polyline>
                            <polyline id="Stroke-5" stroke="#4C5254" stroke-width="2" stroke-linecap="round" stroke-linejoin="round" points="79.5970091 27.7696675 64.1411944 60.4510902 21.5466534 60.4510902 5.93434574 25.5759206"></polyline>
                            <polyline id="Stroke-6" stroke="#4C5254" stroke-width="2" stroke-linecap="round" stroke-linejoin="round" points="22.318306 60.0214458 35.4096543 39.444043 64.1417634 60.4510902"></polyline>
                            <path d="M35.5169231,5.88938958 L35.4088007,39.4414822" id="Stroke-7" stroke="#4C5254" stroke-width="2" stroke-linecap="round" stroke-linejoin="round"></path>
                            <g id="编组" transform="translate(0.000000, 0.898402)">
                                <path d="M79.7472423,32.4634706 C82.6380943,32.4634706 84.9911795,30.1132308 84.9911795,27.2223788 C84.9911795,24.3315269 82.6380943,21.9784417 79.7472423,21.9784417 C76.8563904,21.9784417 74.5033052,24.3315269 74.5033052,27.2223788 C74.5033052,30.1132308 76.8563904,32.4634706 79.7472423,32.4634706" id="Fill-8" fill="#23BDC3"></path>
                                <path d="M79.7472423,32.4634706 C82.6380943,32.4634706 84.9911795,30.1132308 84.9911795,27.2223788 C84.9911795,24.3315269 82.6380943,21.9784417 79.7472423,21.9784417 C76.8563904,21.9784417 74.5033052,24.3315269 74.5033052,27.2223788 C74.5033052,30.1132308 76.8563904,32.4634706 79.7472423,32.4634706 Z" id="Stroke-10" stroke="#4C5254" stroke-width="2"></path>
                                <path d="M35.4085161,10.6497734 C38.2993681,10.6497734 40.6496079,8.29668817 40.6496079,5.40583623 C40.6496079,2.51782961 38.2993681,0.164744417 35.4085161,0.164744417 C32.5148189,0.164744417 30.164579,2.51782961 30.164579,5.40583623 C30.164579,8.29668817 32.5148189,10.6497734 35.4085161,10.6497734" id="Fill-12" fill="#23BDC3"></path>
                                <path d="M35.4085161,10.6497734 C38.2993681,10.6497734 40.6496079,8.29668817 40.6496079,5.40583623 C40.6496079,2.51782961 38.2993681,0.164744417 35.4085161,0.164744417 C32.5148189,0.164744417 30.164579,2.51782961 30.164579,5.40583623 C30.164579,8.29668817 32.5148189,10.6497734 35.4085161,10.6497734 Z" id="Stroke-14" stroke="#4C5254" stroke-width="2"></path>
                                <path d="M7.09125558,29.9180414 C9.98210753,29.9180414 12.3351927,27.5678015 12.3351927,24.6769495 C12.3351927,21.7860976 9.98210753,19.4330124 7.09125558,19.4330124 C4.19755831,19.4330124 1.84731844,21.7860976 1.84731844,24.6769495 C1.84731844,27.5678015 4.19755831,29.9180414 7.09125558,29.9180414" id="Fill-16" fill="#23BDC3"></path>
                                <path d="M7.09125558,29.9180414 C9.98210753,29.9180414 12.3351927,27.5678015 12.3351927,24.6769495 C12.3351927,21.7860976 9.98210753,19.4330124 7.09125558,19.4330124 C4.19755831,19.4330124 1.84731844,21.7860976 1.84731844,24.6769495 C1.84731844,27.5678015 4.19755831,29.9180414 7.09125558,29.9180414 Z" id="Stroke-18" stroke="#4C5254" stroke-width="2"></path>
                                <path d="M22.318306,65.002627 C25.209158,65.002627 27.5622432,62.6523871 27.5622432,59.7615352 C27.5622432,56.8706832 25.209158,54.517598 22.318306,54.517598 C19.4274541,54.517598 17.0743689,56.8706832 17.0743689,59.7615352 C17.0743689,62.6523871 19.4274541,65.002627 22.318306,65.002627" id="Fill-20" fill="#23BDC3"></path>
                                <path d="M22.318306,65.002627 C25.209158,65.002627 27.5622432,62.6523871 27.5622432,59.7615352 C27.5622432,56.8706832 25.209158,54.517598 22.318306,54.517598 C19.4274541,54.517598 17.0743689,56.8706832 17.0743689,59.7615352 C17.0743689,62.6523871 19.4274541,65.002627 22.318306,65.002627 Z" id="Stroke-22" stroke="#4C5254" stroke-width="2"></path>
                                <path d="M64.1423325,65.002627 C67.0331844,65.002627 69.3834243,62.6523871 69.3834243,59.7615352 C69.3834243,56.8706832 67.0331844,54.517598 64.1423325,54.517598 C61.2486352,54.517598 58.8983954,56.8706832 58.8983954,59.7615352 C58.8983954,62.6523871 61.2486352,65.002627 64.1423325,65.002627" id="Fill-24" fill="#23BDC3"></path>
                                <path d="M64.1423325,65.002627 C67.0331844,65.002627 69.3834243,62.6523871 69.3834243,59.7615352 C69.3834243,56.8706832 67.0331844,54.517598 64.1423325,54.517598 C61.2486352,54.517598 58.8983954,56.8706832 58.8983954,59.7615352 C58.8983954,62.6523871 61.2486352,65.002627 64.1423325,65.002627 Z" id="Stroke-26" stroke="#4C5254" stroke-width="2"></path>
                                <path d="M35.4611547,42.9484996 C38.3548519,42.9484996 40.7050918,40.5954144 40.7050918,37.7074078 C40.7050918,34.8165558 38.3548519,32.4634706 35.4611547,32.4634706 C32.5703027,32.4634706 30.2200629,34.8165558 30.2200629,37.7074078 C30.2200629,40.5954144 32.5703027,42.9484996 35.4611547,42.9484996" id="Fill-28" fill="#23BDC3"></path>
                                <path d="M35.4611547,42.9484996 C38.3548519,42.9484996 40.7050918,40.5954144 40.7050918,37.7074078 C40.7050918,34.8165558 38.3548519,32.4634706 35.4611547,32.4634706 C32.5703027,32.4634706 30.2200629,34.8165558 30.2200629,37.7074078 C30.2200629,40.5954144 32.5703027,42.9484996 35.4611547,42.9484996 Z" id="Stroke-30" stroke="#4C5254" stroke-width="2"></path>
                                <path d="M53.0999041,73.5303557 L81.0154045,73.5303557 C81.0154045,78.0430438 78.0932539,81.7334326 74.5252142,81.7334326 L6.91456079,81.7334326 C3.34367577,81.7334326 0.421525227,78.0430438 0.421525227,73.5303557 L28.6841555,73.5303557" id="Stroke-32" stroke="#4C5254" stroke-width="2" stroke-linecap="round" stroke-linejoin="round"></path>
                                <path d="M6.35232423,59.5649231 L11.6873118,72.5936741" id="Stroke-34" stroke="#4C5254" stroke-width="2" stroke-linecap="round" stroke-linejoin="round"></path>
                                <path d="M70.285962,72.5939586 L75.6209495,59.5652076" id="Stroke-36" stroke="#4C5254" stroke-width="2" stroke-linecap="round" stroke-linejoin="round"></path>
                                <path d="M41.813062,73.5303557 L41.8415153,73.5303557" id="Stroke-38" stroke="#4C5254" stroke-width="2" stroke-linecap="round" stroke-linejoin="round"></path>
                            </g>
                        </g>
                    </g>
                </g>
            </g>
        </g>
    </g>
</svg>