<?xml version="1.0" encoding="UTF-8"?>
<svg width="60px" height="60px" viewBox="0 0 60 60" version="1.1" xmlns="http://www.w3.org/2000/svg" xmlns:xlink="http://www.w3.org/1999/xlink">
    <!-- Generator: Sketch 52.1 (67048) - http://www.bohemiancoding.com/sketch -->
    <title>致医保险</title>
    <desc>Created with Sketch.</desc>
    <g id="Page-1" stroke="none" stroke-width="1" fill="none" fill-rule="evenodd">
        <g id="2" transform="translate(-660.000000, -3512.000000)">
            <g id="分组-11-copy-13" transform="translate(660.000000, 3512.000000)">
                <g id="致医保险">
                    <path d="M59.5,29.75 C59.3125,40.28125 58.25,48.74375 53.4,53.4 C48.7375,58.25625 40.275,59.3125 29.75,59.5 C19.21875,59.3125 10.75625,58.25 6.1,53.4 C1.24375,48.7375 0.1875,40.275 0,29.75 C0.1875,19.21875 1.25,10.75625 6.1,6.1 C10.7625,1.24375 19.225,0.1875 29.75,0 C40.28125,0.1875 48.74375,1.25 53.4,6.1 C58.25625,10.75625 59.3125,19.21875 59.5,29.75 Z" id="路径" fill="#147AE0"></path>
                    <g id="baoxianfuwu" transform="translate(14.000000, 12.000000)" fill="#FFFFFF" fill-rule="nonzero">
                        <path d="M17.0036085,0.000192331625 C7.62818289,0.000192331625 0,8.34353822 0,18.5986605 C0,19.289708 0.54176302,19.8457387 1.21326803,19.8457387 C1.88477303,19.8457387 2.42653605,19.2899003 2.42653605,18.5986605 C2.42653605,16.8969102 3.6508217,15.5107762 5.15719644,15.5107762 C6.66357117,15.5107762 7.88785682,16.8969102 7.88785682,18.5986605 C7.88785682,19.289708 8.42942988,19.8457387 9.10112485,19.8457387 C9.77262985,19.8457387 10.3142029,19.2899003 10.3142029,18.5986605 C10.3142029,16.8969102 11.5386785,15.5107762 13.0448633,15.5107762 C14.5510481,15.5107762 15.7755237,16.8969102 15.7755237,18.5986605 C15.7755237,18.6136623 15.783122,18.6248176 15.783122,18.6398194 L15.783122,27.1972304 C15.783122,27.2572379 15.8089565,27.3097444 15.8163649,27.3699442 C15.7979388,27.4564935 15.7645061,27.5353494 15.7645061,27.6253606 C15.7645061,29.7665886 14.0763406,31.5058435 12.0023684,31.5058435 C9.92839622,31.5058435 8.24042069,29.762742 8.24042069,27.6251683 C8.24042069,26.9339284 7.69884763,26.37809 7.02734263,26.37809 C6.35583762,26.37809 5.8140746,26.9339284 5.8140746,27.6251683 C5.8140746,31.1411827 8.59298457,34 12.0063575,34 C15.4195405,34 18.1984505,31.1411827 18.1984505,27.6251683 C18.1984505,27.5651608 18.1726161,27.512462 18.1650177,27.4524545 C18.1836337,27.3659053 18.2170665,27.2870493 18.2170665,27.1970381 L18.2170665,18.504418 C18.2615169,16.8440191 19.4635773,15.5105839 20.9403185,15.5105839 C22.4466932,15.5105839 23.6709789,16.8967179 23.6709789,18.5984681 C23.6709789,19.2895157 24.2125519,19.8455464 24.8842469,19.8455464 C25.5557519,19.8455464 26.097325,19.289708 26.097325,18.5984681 C26.097325,16.8967179 27.3218006,15.5105839 28.8279853,15.5105839 C30.3343601,15.5105839 31.5586457,16.8967179 31.5586457,18.5984681 C31.5586457,19.2895157 32.1004087,19.8455464 32.7719138,19.8455464 L32.7867306,19.8455464 C33.4582356,19.8455464 33.9999986,19.289708 33.9999986,18.5984681 C34.0037978,8.34334589 26.379414,0 17.0037985,0 L17.0036085,0.000192331625 Z" id="形状"></path>
                    </g>
                </g>
            </g>
        </g>
    </g>
</svg>