<?xml version="1.0" encoding="UTF-8"?>
<svg width="60px" height="60px" viewBox="0 0 60 60" version="1.1" xmlns="http://www.w3.org/2000/svg" xmlns:xlink="http://www.w3.org/1999/xlink">
    <!-- Generator: Sketch 52.1 (67048) - http://www.bohemiancoding.com/sketch -->
    <title>致医健康微商城</title>
    <desc>Created with Sketch.</desc>
    <g id="Page-1" stroke="none" stroke-width="1" fill="none" fill-rule="evenodd">
        <g id="2" transform="translate(-660.000000, -1597.000000)">
            <g id="分组-11-copy-4" transform="translate(660.000000, 1597.000000)">
                <g id="致医健康微商城">
                    <path d="M59.5,29.75 C59.3125,40.28125 58.25,48.74375 53.4,53.4 C48.7375,58.25625 40.275,59.3125 29.75,59.5 C19.21875,59.3125 10.75625,58.25 6.1,53.4 C1.24375,48.7375 0.1875,40.275 0,29.75 C0.1875,19.21875 1.25,10.75625 6.1,6.1 C10.7625,1.24375 19.225,0.1875 29.75,0 C40.28125,0.1875 48.74375,1.25 53.4,6.1 C58.25625,10.75625 59.3125,19.21875 59.5,29.75 Z" id="路径" fill="#019CEA"></path>
                    <g id="shangcheng2" transform="translate(14.000000, 14.000000)" fill="#FFFFFF" fill-rule="nonzero">
                        <path d="M28.4972129,4.28521312 C28.4972129,1.91720751 26.4838026,0 23.9987323,0 L6.00108128,0 C3.51601096,0 1.50073639,1.91720751 1.50073639,4.28521312 L0,25.7130328 C0,28.0810384 2.01341031,30 4.50034489,30 L25.4994687,30 C27.984539,30 30,28.0810384 30,25.7130328 L28.4972129,4.28521312 Z M23.3333333,6.34198303 C23.3333333,8.44270597 22.4664869,10.4194461 20.8919344,11.9054937 C19.3192541,13.3915412 17.2260915,14.2105263 15,14.2105263 C12.7739085,14.2105263 10.6807459,13.3915412 9.10619336,11.9054937 C7.53351307,10.4194461 6.66666667,8.44270597 6.66666667,6.34198303 L6.66666667,6.31928195 L8.71489553,6.32277442 L8.71489553,6.34722174 C8.71864001,9.61617714 11.5363589,12.2756959 15,12.2756959 C18.4636411,12.2756959 21.28136,9.61617714 21.2832322,6.34722174 L21.2832322,6.32452066 L23.3333333,6.31578947 L23.3333333,6.34198303 Z" id="形状"></path>
                    </g>
                </g>
            </g>
        </g>
    </g>
</svg>