<?xml version="1.0" encoding="UTF-8"?>
<svg width="60px" height="60px" viewBox="0 0 60 60" version="1.1" xmlns="http://www.w3.org/2000/svg" xmlns:xlink="http://www.w3.org/1999/xlink">
    <!-- Generator: Sketch 52.1 (67048) - http://www.bohemiancoding.com/sketch -->
    <title>致医康复</title>
    <desc>Created with Sketch.</desc>
    <g id="Page-1" stroke="none" stroke-width="1" fill="none" fill-rule="evenodd">
        <g id="2" transform="translate(-660.000000, -3316.000000)">
            <g id="分组-11-copy-12" transform="translate(660.000000, 3316.000000)">
                <g id="致医康复">
                    <path d="M59.5,29.75 C59.3125,40.28125 58.25,48.74375 53.4,53.4 C48.7375,58.25625 40.275,59.3125 29.75,59.5 C19.21875,59.3125 10.75625,58.25 6.1,53.4 C1.24375,48.7375 0.1875,40.275 0,29.75 C0.1875,19.21875 1.25,10.75625 6.1,6.1 C10.7625,1.24375 19.225,0.1875 29.75,0 C40.28125,0.1875 48.74375,1.25 53.4,6.1 C58.25625,10.75625 59.3125,19.21875 59.5,29.75 Z" id="路径" fill="#019CEA"></path>
                    <g id="jiankang" transform="translate(10.000000, 14.000000)" fill="#FFFFFF" fill-rule="nonzero">
                        <path d="M32.0060851,0.686855092 C38.5639524,3.00300795 39.765027,11.7032698 35.4892015,18.3208494 C32.545768,22.875847 26.0103208,28.6368521 20.6279051,30.8571429 L19.3675775,30.8555967 C14.041212,28.6445829 7.573025,22.922232 4.54791844,18.3332188 C0.190419812,11.7187314 1.44754457,2.99527712 8.1239179,0.682216601 C12.3468962,-0.778907877 16.6595547,0.176621147 20.0065492,2.90405351 C23.3983839,0.182805785 27.8375556,-0.78663871 32.0060851,0.686855092 Z M21.6175906,13.9730378 L21.6175906,9.33454736 L18.414725,9.33454736 L18.414725,13.9730378 L13.6104266,13.9730378 L13.6104266,17.0653647 L18.414725,17.0653647 L18.414725,21.7038551 L21.6175906,21.7038551 L21.6175906,17.0653647 L26.421889,17.0653647 L26.421889,13.9730378 L21.6175906,13.9730378 Z" id="合并形状"></path>
                    </g>
                </g>
            </g>
        </g>
    </g>
</svg>