<?xml version="1.0" encoding="UTF-8"?>
<svg width="60px" height="60px" viewBox="0 0 60 60" version="1.1" xmlns="http://www.w3.org/2000/svg" xmlns:xlink="http://www.w3.org/1999/xlink">
    <!-- Generator: Sketch 52.1 (67048) - http://www.bohemiancoding.com/sketch -->
    <title>致医社交</title>
    <desc>Created with Sketch.</desc>
    <g id="Page-1" stroke="none" stroke-width="1" fill="none" fill-rule="evenodd">
        <g id="2" transform="translate(-660.000000, -2837.000000)">
            <g id="分组-13" transform="translate(660.000000, 2837.000000)">
                <g id="致医社交">
                    <path d="M60,30 C59.8109244,40.6197479 58.7394958,49.1533613 53.8487395,53.8487395 C49.1470588,58.7457983 40.6134454,59.8109244 30,60 C19.3802521,59.8109244 10.8466387,58.7394958 6.1512605,53.8487395 C1.25420168,49.1470588 0.18907563,40.6134454 0,30 C0.18907563,19.3802521 1.2605042,10.8466387 6.1512605,6.1512605 C10.8529412,1.25420168 19.3865546,0.18907563 30,0 C40.6197479,0.18907563 49.1533613,1.2605042 53.8487395,6.1512605 C58.7457983,10.8466387 59.8109244,19.3802521 60,30 Z" id="路径" fill="#019CEA"></path>
                    <path d="M20.8745117,37.1650391 C23.7684064,40.1956532 27.5053482,41.7109375 32.0854492,41.7109375 C34.1362407,41.7109375 35.8110287,41.3121785 37.1098633,40.5146484 C38.4086979,39.7171184 39.0581055,38.6005931 39.0581055,37.1650391 C39.0581055,35.888991 38.6707396,35.000328 37.8959961,34.4990234 C37.0984661,33.9749323 36.0389063,33.6901044 34.7172852,33.6445312 L28.4282227,33.0976562 C25.4431817,32.8242174 23.0164481,31.8216232 21.1479492,30.0898438 C19.2338771,28.4036374 18.2540692,26.0452625 18.2084961,23.0146484 C18.2540692,19.3687969 19.5414913,16.6344492 22.0708008,14.8115234 C24.5317506,12.9885977 27.6534642,12.0771484 31.4360352,12.0771484 C33.0766684,12.0771484 34.5463802,12.1796865 35.8452148,12.3847656 C37.1440495,12.6126313 38.3631128,12.9316386 39.5024414,13.3417969 C41.6899523,14.2304732 43.6495682,15.4267503 45.3813477,16.9306641 L40.972168,22.0917969 C39.6049736,21.1119743 38.158048,20.3030631 36.6313477,19.6650391 C35.1274339,19.0953748 33.3956804,18.8105469 31.4360352,18.8105469 C29.2029511,18.8105469 27.6420943,19.2093059 26.753418,20.0068359 C25.8191685,20.804366 25.3520508,21.8297463 25.3520508,23.0830078 C25.3064776,23.8805378 25.6596642,24.5755179 26.4116211,25.1679688 C27.0952183,25.8287793 28.3028885,26.2503246 30.034668,26.4326172 L35.9135742,26.8769531 C39.6049989,27.150392 42.2709879,28.2669173 43.9116211,30.2265625 C45.4383214,32.1406346 46.2016602,34.5673681 46.2016602,37.5068359 C46.156087,40.9476083 44.7547338,43.6022042 41.9975586,45.4707031 C39.2631699,47.3847752 35.7654835,48.3645831 31.5043945,48.4101562 C25.7166052,48.4101562 20.5099515,46.2910368 15.8842773,42.0527344 L20.8745117,37.1650391 Z" id="s" fill="#FFFFFF"></path>
                </g>
            </g>
        </g>
    </g>
</svg>