<?xml version="1.0" encoding="UTF-8"?>
<svg width="60px" height="60px" viewBox="0 0 60 60" version="1.1" xmlns="http://www.w3.org/2000/svg" xmlns:xlink="http://www.w3.org/1999/xlink">
    <!-- Generator: Sketch 52.1 (67048) - http://www.bohemiancoding.com/sketch -->
    <title>致医传媒</title>
    <desc>Created with Sketch.</desc>
    <g id="Page-1" stroke="none" stroke-width="1" fill="none" fill-rule="evenodd">
        <g id="2" transform="translate(-660.000000, -3120.000000)">
            <g id="分组-11-copy-11" transform="translate(660.000000, 3120.000000)">
                <g id="致医传媒">
                    <path d="M59.5,29.75 C59.3125,40.28125 58.25,48.74375 53.4,53.4 C48.7375,58.25625 40.275,59.3125 29.75,59.5 C19.21875,59.3125 10.75625,58.25 6.1,53.4 C1.24375,48.7375 0.1875,40.275 0,29.75 C0.1875,19.21875 1.25,10.75625 6.1,6.1 C10.7625,1.24375 19.225,0.1875 29.75,0 C40.28125,0.1875 48.74375,1.25 53.4,6.1 C58.25625,10.75625 59.3125,19.21875 59.5,29.75 Z" id="路径" fill="#147AE0"></path>
                    <g id="shipinyingshi" transform="translate(12.000000, 14.000000)">
                        <path d="M10,19 C10,22.8659932 13.1340068,26 17,26 C20.8659932,26 24,22.8659932 24,19 C24,15.1340068 20.8659932,12 17,12 C13.1340068,12 10,15.1340068 10,19 Z" id="路径" fill="#EDF6FF"></path>
                        <path d="M18,12 C8.06062498,12 0,9.05857665 0,5.43065693 C0,3.17299271 3.12187499,1.18248176 7.875,0 L7.875,2.08029197 C4.43812497,2.88394161 2.25000001,4.08667884 2.25000001,5.43284672 C2.25000001,7.85145987 9.30375002,9.81240877 18,9.81240877 C26.69625,9.81240877 33.75,7.85145987 33.75,5.43284672 C33.75,4.08667884 31.561875,2.88394161 28.125,2.08029197 L28.125,2.99790606e-16 C32.878125,1.18248176 36,3.17518246 36,5.43065693 C36,9.05857665 27.939375,12 18,12 Z" id="路径" fill="#FFFFFF"></path>
                        <path d="M18,29.5384615 C26.69625,29.5384615 33.75,27.0590769 33.75,24 L36,24 C36,28.4184616 27.939375,32 18,32 C8.06062498,32 0,28.4184615 0,24 L2.25000001,24 C2.25000001,27.0590769 9.30375002,29.5384616 18,29.5384615 Z" id="路径" fill="#FFFFFF"></path>
                        <path d="M28.125,28 L28.125,23.6666667 L30.375,23.6666667 L30.375,28 L28.125,28 Z M28.125,2 L30.375,2 L30.375,15 L28.125,15 L28.125,2 Z M5.62499999,23.6666667 L7.875,23.6666667 L7.875,28 L5.62499999,28 L5.62499999,23.6666667 Z M5.62499999,17.1666667 L7.875,17.1666667 L7.875,21.5 L5.62499999,21.5 L5.62499999,17.1666667 Z M5.62499999,2 L7.875,2 L7.875,15 L5.62499999,15 L5.62499999,2 Z M0,7.95833333 L2.25000001,7.95833333 L2.25000001,24.2083333 L0,24.2083333 L0,7.95833333 Z M-7.2475359e-13,5.38476562 C6.35111396,9.53336589 12.5580394,11.607666 18.6207762,11.607666 C24.683513,11.607666 30.4765876,9.53336589 36,5.38476562 L36,24.2083333 C28.9965395,29.0367296 22.6406426,31.4509277 16.9323092,31.4509277 C11.2239759,31.4509277 5.57987283,28.9672852 -7.2475359e-13,24 L-7.2475359e-13,5.38476562 Z" id="形状" fill="#FFFFFF" fill-rule="nonzero"></path>
                        <polygon id="路径" fill="#147AE0" fill-rule="nonzero" points="28 18 30.25 18 30.25 22.3333333 28 22.3333333"></polygon>
                        <polygon id="路径-copy-3" fill="#147AE0" fill-rule="nonzero" points="5.74999999 18 8 18 8 22.3333333 5.74999999 22.3333333"></polygon>
                        <polygon id="路径-copy" fill="#147AE0" fill-rule="nonzero" points="28 24 30.25 24 30.25 28.3333333 28 28.3333333"></polygon>
                        <polygon id="路径-copy-4" fill="#147AE0" fill-rule="nonzero" points="5.74999999 24 8 24 8 28.3333333 5.74999999 28.3333333"></polygon>
                        <polygon id="路径-copy-2" fill="#147AE0" fill-rule="nonzero" points="28 12 30.25 12 30.25 16.3333333 28 16.3333333"></polygon>
                        <polygon id="路径-copy-5" fill="#147AE0" fill-rule="nonzero" points="5.74999999 12 8 12 8 16.3333333 5.74999999 16.3333333"></polygon>
                        <polygon id="路径" fill="#147AE0" points="14 16 14 24 22 20"></polygon>
                    </g>
                </g>
            </g>
        </g>
    </g>
</svg>