<?xml version="1.0" encoding="UTF-8"?>
<svg width="60px" height="60px" viewBox="0 0 60 60" version="1.1" xmlns="http://www.w3.org/2000/svg" xmlns:xlink="http://www.w3.org/1999/xlink">
    <!-- Generator: Sketch 52.1 (67048) - http://www.bohemiancoding.com/sketch -->
    <title>致医合伙人</title>
    <desc>Created with Sketch.</desc>
    <g id="Page-1" stroke="none" stroke-width="1" fill="none" fill-rule="evenodd">
        <g id="2" transform="translate(-660.000000, -1896.000000)">
            <g id="分组-11-copy-5" transform="translate(660.000000, 1896.000000)">
                <g id="致医合伙人">
                    <path d="M59.5,29.75 C59.3125,40.28125 58.25,48.74375 53.4,53.4 C48.7375,58.25625 40.275,59.3125 29.75,59.5 C19.21875,59.3125 10.75625,58.25 6.1,53.4 C1.24375,48.7375 0.1875,40.275 0,29.75 C0.1875,19.21875 1.25,10.75625 6.1,6.1 C10.7625,1.24375 19.225,0.1875 29.75,0 C40.28125,0.1875 48.74375,1.25 53.4,6.1 C58.25625,10.75625 59.3125,19.21875 59.5,29.75 Z" id="路径" fill="#FF7715"></path>
                    <g id="合伙人-灰" transform="translate(10.285714, 13.714286)" fill="#FFFFFF" fill-rule="nonzero">
                        <path d="M15.3912505,17.3694235 C13.8497468,17.3694235 11.3683368,13.2927056 11.3683368,13.2927056 L18.3526126,6.1156297 C18.3526126,6.1156297 15.8998186,3.63143403 13.8496731,1.55493635 C12.3777021,0.0642545304 11.1998085,0.000721068271 11.1998085,0.000721068271 C11.1998085,0.000721068271 10.0789258,-0.0818724349 8.6178192,1.52085251 L0.964770279,9.91567804 C-0.141417745,11.129055 0.00659696008,11.8766943 0.00659696008,11.8766943 C0.00659696008,11.8766943 -0.038812876,12.7848491 1.04778226,13.8864819 L5.9086603,18.8153703 L10.4882404,14.1699532 L23.4952306,27.8595452 L22.633438,28.7334665 L23.4819722,29.5850018 L26.3750171,26.7589962 L20.589222,20.901099 L20.9358541,20.5497964 L26.7281678,26.4141589 L29.3714402,23.832047 L23.5308439,17.9184647 L23.8775128,17.5671621 L29.7246277,23.4870978 L32.6177094,20.6610547 L26.7175243,14.6871903 L27.0641931,14.3356634 L31.5087592,18.8424655 L36.7815666,13.4959753 C37.8711448,12.3911285 37.7050474,11.5235604 37.7050474,11.5235604 C37.7050474,11.5235604 37.8832985,10.7331294 36.6738426,9.50689626 L28.8644926,1.58786163 C27.3073734,0.00890565756 26.1853859,0.00266443827 26.1853859,0.00266443827 C26.1853859,0.00266443827 25.1346619,-0.0319799824 23.5906539,1.54058527 L12.0573289,13.2876603 C12.0573289,13.2876603 14.1669159,16.6624082 15.3855789,16.6624082 C16.6042419,16.6624082 22.1309099,9.82273231 22.1309099,9.82273231 L22.4795307,10.1762773 C22.4795307,10.1762773 16.9327911,17.3694235 15.3912505,17.3694235 Z M13.5029305,18.0744954 L8.75202313,22.9462037 L5.72624754,19.7614956 L10.477155,14.8897873 L13.5029305,18.0744954 Z M16.646595,21.3834675 L11.8956875,26.2552504 L9.09401481,23.3062889 L13.8449222,18.4345807 L16.646595,21.3834675 Z M19.7917693,24.6938972 L15.0406041,29.5656801 L12.2376792,26.6153731 L16.9888076,21.7435902 L19.7917693,24.6938972 Z M22.7986518,27.8589097 L18.0941117,32.7397745 L15.3828168,29.9256158 L20.1337242,25.0538329 L22.7986518,27.8589097 Z M23.1289687,29.9300633 L19.9860777,33 L19.2016256,32.2133811 L22.2867691,29.0850681 L23.1289687,29.9300633 Z" id="logo"></path>
                    </g>
                </g>
            </g>
        </g>
    </g>
</svg>