<?xml version="1.0" encoding="UTF-8"?>
<svg width="60px" height="60px" viewBox="0 0 60 60" version="1.1" xmlns="http://www.w3.org/2000/svg" xmlns:xlink="http://www.w3.org/1999/xlink">
    <!-- Generator: Sketch 52.1 (67048) - http://www.bohemiancoding.com/sketch -->
    <title>致医健康</title>
    <desc>Created with Sketch.</desc>
    <g id="Page-1" stroke="none" stroke-width="1" fill="none" fill-rule="evenodd">
        <g id="2" transform="translate(-660.000000, -1383.000000)">
            <g id="分组-11-copy-3" transform="translate(660.000000, 1383.000000)">
                <g id="致医健康">
                    <path d="M59.5,29.75 C59.3125,40.28125 58.25,48.74375 53.4,53.4 C48.7375,58.25625 40.275,59.3125 29.75,59.5 C19.21875,59.3125 10.75625,58.25 6.1,53.4 C1.24375,48.7375 0.1875,40.275 0,29.75 C0.1875,19.21875 1.25,10.75625 6.1,6.1 C10.7625,1.24375 19.225,0.1875 29.75,0 C40.28125,0.1875 48.74375,1.25 53.4,6.1 C58.25625,10.75625 59.3125,19.21875 59.5,29.75 Z" id="路径" fill="#019CEA"></path>
                    <g id="致医健康产品线logo" transform="translate(14.000000, 14.000000)" fill="#FFFFFF" fill-rule="nonzero">
                        <path d="M10.5389125,12.5711727 C11.0496186,13.0717648 11.8669629,13.0717648 12.377669,12.5711727 L20.5732693,4.45437629 C22.6612569,2.39999891 26.0110493,2.39999891 28.0990369,4.45437629 C28.9292189,5.27479191 29.3964401,6.39339215 29.3964401,7.56056134 C29.3964401,8.72773054 28.9292189,9.84633078 28.0990369,10.6667464 L27.3306994,11.4547849 C26.8428473,11.963009 26.8428473,12.7656163 27.3306994,13.2738404 C27.8414054,13.7744325 28.6587497,13.7744325 29.1694558,13.2738404 L29.9443604,12.5055029 C31.2597992,11.2041415 32,9.43064628 32,7.58026231 C32,5.72987833 31.2597992,3.95638314 29.9443604,2.65502174 C26.8341633,-0.404838616 21.8447099,-0.404838616 18.7345128,2.65502174 L10.5389125,10.7455502 C10.0468433,11.2546187 10.0468433,12.0621043 10.5389125,12.5711727 Z M21.5780184,18.9477175 C21.0673123,18.4471254 20.249968,18.4471254 19.7392619,18.9477175 L10.4798096,28.1414999 C8.72457593,29.8661896 5.91103445,29.8661896 4.15580075,28.1414999 C3.16639193,27.1643196 2.60950826,25.8316179 2.60950826,24.4410025 C2.60950826,23.0503871 3.16639193,21.7176854 4.15580075,20.7405051 L4.81249949,20.0838064 C5.30035157,19.5755822 5.30035157,18.772975 4.81249949,18.2647508 C4.3017934,17.7641587 3.4844491,17.7641587 2.97374301,18.2647508 L2.31704427,18.9214496 C0.840349642,20.3798267 0.00919394615,22.3688365 0.00919394615,24.444286 C0.00919394615,26.5197355 0.840349642,28.5087453 2.31704427,29.9671224 C5.09304334,32.7008221 9.54913403,32.7008221 12.3251331,29.9671224 L21.5845854,20.77334 C22.0748278,20.2625034 22.0719232,19.4550141 21.5780184,18.9477175 Z M10.9986016,21.6795843 C11.5093077,22.1801764 12.326652,22.1801764 12.8373581,21.6795843 C13.3252102,21.1713602 13.3252102,20.3687529 12.8373581,19.8605288 L4.14923376,11.2577753 C3.16550797,10.2802303 2.61233402,8.9506796 2.61233402,7.56384484 C2.61233402,6.17701008 3.16550797,4.84745941 4.14923376,3.86991441 C5.90590228,2.14873569 8.71657413,2.14873569 10.4732426,3.86991441 L11.6750013,5.05853914 C12.1857074,5.55913123 13.0030517,5.55913123 13.5137578,5.05853914 C14.0016099,4.550315 14.0016099,3.74770776 13.5137578,3.23948362 L12.3119991,2.0508589 C9.53376278,-0.683619632 5.07557965,-0.683619632 2.29734331,2.0508589 C0.827124109,3.50735346 0,5.49103944 0,7.56056134 C0,9.63008324 0.827124109,11.6137692 2.29734331,13.0702638 L10.9986016,21.6795843 Z M21.1183293,10.7455502 C20.6076232,10.2449581 19.7902789,10.2449581 19.2795728,10.7455502 C18.7917207,11.2537744 18.7917207,12.0563816 19.2795728,12.5646058 L27.4817401,20.6879692 C28.4702558,21.6736401 29.025838,23.0122054 29.025838,24.4081676 C29.025838,25.8041298 28.4702558,27.142695 27.4817401,28.1283659 C25.7384811,29.8448472 22.9403921,29.8448472 21.1971331,28.1283659 L20.4287956,27.3665954 C19.9180895,26.8660033 19.1007452,26.8660033 18.5900391,27.3665954 C18.102187,27.8748195 18.102187,28.6774268 18.5900391,29.1856509 L19.3583766,29.9474215 C22.1230523,32.665079 26.5558208,32.665079 29.3204965,29.9474215 C30.8011747,28.4831546 31.6344046,26.487307 31.6344046,24.4048841 C31.6344046,22.3224612 30.8011747,20.3266136 29.3204965,18.8623467 L21.1183293,10.7455502 Z" id="形状"></path>
                    </g>
                </g>
            </g>
        </g>
    </g>
</svg>