<?xml version="1.0" encoding="UTF-8"?>
<svg width="60px" height="60px" viewBox="0 0 60 60" version="1.1" xmlns="http://www.w3.org/2000/svg" xmlns:xlink="http://www.w3.org/1999/xlink">
    <!-- Generator: Sketch 52.1 (67048) - http://www.bohemiancoding.com/sketch -->
    <title>致医研究</title>
    <desc>Created with Sketch.</desc>
    <g id="Page-1" stroke="none" stroke-width="1" fill="none" fill-rule="evenodd">
        <g id="2" transform="translate(-660.000000, -2641.000000)">
            <g id="分组-11-copy-9" transform="translate(660.000000, 2641.000000)">
                <g id="致医研究">
                    <path d="M59.5,29.75 C59.3125,40.28125 58.25,48.74375 53.4,53.4 C48.7375,58.25625 40.275,59.3125 29.75,59.5 C19.21875,59.3125 10.75625,58.25 6.1,53.4 C1.24375,48.7375 0.1875,40.275 0,29.75 C0.1875,19.21875 1.25,10.75625 6.1,6.1 C10.7625,1.24375 19.225,0.1875 29.75,0 C40.28125,0.1875 48.74375,1.25 53.4,6.1 C58.25625,10.75625 59.3125,19.21875 59.5,29.75 Z" id="路径" fill="#147AE0"></path>
                    <g id="C研究logo-定稿" transform="translate(10.285714, 12.000000)" fill="#FFFFFF">
                        <g id="XMLID_25_">
                            <g id="XMLID_22_">
                                <path d="M17.5281351,31.2021479 L23.4939031,31.2021479 L22.0910616,35.0562703 L17.5281351,35.0562703 C7.85591229,35.0562703 5.68434189e-14,27.1855912 5.68434189e-14,17.5281351 C5.68434189e-14,7.87067905 7.85591229,4.54747351e-13 17.5281351,4.54747351e-13 L34.8495357,4.54747351e-13 L33.4466943,3.85412239 L17.5281351,3.85412239 C9.98232464,3.85412239 3.85412239,9.98232464 3.85412239,17.5281351 C3.85412239,25.0739456 9.98232464,31.2021479 17.5281351,31.2021479 Z M17.5281351,11.5623672 C14.2351493,11.5623672 11.5476004,14.2351493 11.5623672,17.5281351 C11.5623672,20.8211209 14.2351493,23.4939031 17.5281351,23.4939031 L26.2848193,23.4939031 L24.8819778,27.3480255 L17.5281351,27.3480255 C12.108737,27.3480255 7.70824477,22.9475333 7.70824477,17.5281351 C7.70824477,12.108737 12.108737,7.70824477 17.5281351,7.70824477 L32.0438528,7.70824477 L30.6410113,11.5623672 L17.5281351,11.5623672 Z M31.1157999,23.5086699 L31.9995525,21.0721557 L36.0013424,21.0721557 L35.1217195,23.5086699 L37.7142857,23.5086699 L36.3114442,27.3627923 L33.730316,27.3627923 L32.8560242,29.7845397 L28.8394675,29.7845397 L29.717864,27.3627923 L27.141291,27.3627923 L28.5441325,23.5086699 L31.1157999,23.5086699 Z" id="合并形状"></path>
                            </g>
                        </g>
                    </g>
                </g>
            </g>
        </g>
    </g>
</svg>