<?xml version="1.0" encoding="UTF-8"?>
<svg width="60px" height="60px" viewBox="0 0 60 60" version="1.1" xmlns="http://www.w3.org/2000/svg" xmlns:xlink="http://www.w3.org/1999/xlink">
    <!-- Generator: Sketch 52.1 (67048) - http://www.bohemiancoding.com/sketch -->
    <title>药报单</title>
    <desc>Created with Sketch.</desc>
    <g id="Page-1" stroke="none" stroke-width="1" fill="none" fill-rule="evenodd">
        <g id="2" transform="translate(-660.000000, -2054.000000)">
            <g id="分组-11-copy-6" transform="translate(660.000000, 2054.000000)">
                <g id="药报单">
                    <path d="M59.5,29.75 C59.3125,40.28125 58.25,48.74375 53.4,53.4 C48.7375,58.25625 40.275,59.3125 29.75,59.5 C19.21875,59.3125 10.75625,58.25 6.1,53.4 C1.24375,48.7375 0.1875,40.275 0,29.75 C0.1875,19.21875 1.25,10.75625 6.1,6.1 C10.7625,1.24375 19.225,0.1875 29.75,0 C40.28125,0.1875 48.74375,1.25 53.4,6.1 C58.25625,10.75625 59.3125,19.21875 59.5,29.75 Z" id="路径" fill="#FF3737"></path>
                    <path d="M33.8327274,21.804296 L33.8327274,23.8844827 L35.8867256,23.8844827 L35.8867256,25.9971987 L33.8327274,25.9971987 L33.8327274,28.0779462 L31.7477255,28.0779462 L31.7477255,25.9971987 L29.6937273,25.9971987 L29.6937273,23.8844827 L31.7477255,23.8844827 L31.7477255,21.8037352 L33.8327274,21.804296 Z M19.3135623,18.9708899 L46.2857143,18.9714508 L43.738978,31.6707411 C43.6570395,32.096425 43.2883164,32.5826806 42.860354,32.5826806 L22.7212062,32.5826806 C22.2932438,32.5826806 21.9250743,32.1020335 21.8425822,31.6757887 L19.3135623,18.9708899 Z M36.9613376,25.9971987 L36.9613376,23.8839219 C36.9613376,23.5953542 36.8481782,23.3186054 36.6467532,23.1145573 C36.4453282,22.9105091 36.1721372,22.795876 35.8872792,22.795876 L34.907893,22.795876 L34.907893,21.8037352 C34.907893,21.202824 34.4270207,20.7156893 33.8338347,20.7156893 L31.7488327,20.7156893 C31.1556467,20.7156893 30.6747744,21.202824 30.6747744,21.8037352 L30.6747744,22.7964368 L29.6953882,22.7964368 C29.1021125,22.7964368 28.6210819,23.2834809 28.6207762,23.8844827 L28.6207762,25.9966378 C28.6207762,26.5978587 29.1018964,27.0852445 29.6953882,27.0852445 L30.6747744,27.0852445 L30.6747744,28.0773854 C30.6747743,28.6783873 31.1555572,29.1656825 31.7488327,29.1659921 L33.8338347,29.1659921 C34.4271103,29.1656825 34.9078931,28.6783873 34.907893,28.0773854 L34.907893,27.0852445 L35.8872792,27.0852445 C36.4804653,27.0852445 36.9613376,26.5981098 36.9613376,25.9971987 Z M17.4865558,19.540151 C17.4865558,19.540151 18.0446232,19.540151 18.179711,20.2754233 L20.8543378,34.3465488 L45.3135254,34.3465488 C45.808478,34.3465488 46.2093122,34.7150262 46.2093122,35.2158638 C46.2093122,35.7167014 45.808478,36.0851788 45.3135254,36.0851788 L42.3277539,36.0851788 L42.3277539,36.6353711 C44.0993965,37.0201131 45.3760865,38.5220651 45.3727647,40.4379232 C45.3727647,42.5332528 43.6337867,44.2230891 41.6080241,44.227015 C39.6702899,44.2309409 38.2064702,42.8714444 37.8432834,41.1328144 L27.6563382,41.1328144 C27.3202798,42.8153596 25.7640024,44.2830998 23.8262683,44.227015 C21.7737017,44.1816406 20.1319852,42.4851824 20.1279643,40.405394 C20.1279643,38.5388905 21.4633399,36.9640282 23.2903464,36.6123763 L23.2903464,36.0851788 L20.1157842,36.0851788 C19.4536328,36.0851788 19.2377138,35.4654413 19.2377138,35.4654413 L16.5320833,21.5592053 L12.8957868,21.5592053 C12.4008341,21.5592053 12,21.0505158 12,20.5496782 C12,20.0488405 12.4013878,19.540151 12.8957868,19.540151 L17.4865558,19.540151 Z M23.9475151,42.6370098 L23.9469614,42.6370098 C24.5352744,42.6371586 25.0995419,42.4005128 25.5155939,41.9791477 C25.9316459,41.5577826 26.1653902,40.9862257 26.1653902,40.3902511 C26.1653902,39.1494006 25.1724137,38.1434924 23.9475151,38.1434924 C22.7226165,38.1434924 21.72964,39.1494006 21.72964,40.3902511 C21.72964,41.6311017 22.7226165,42.6370098 23.9475151,42.6370098 Z M37.8111724,39.7256458 C38.0985107,38.1990164 39.3458579,36.8810227 40.951409,36.6056461 L40.951409,36.0851788 L24.6190784,36.0851788 L24.6190784,36.6269584 C26.058538,36.8928005 27.192943,37.7968881 27.6962002,39.7531273 L37.8111724,39.7256458 Z M43.7904663,40.3902511 L43.7899127,40.3902511 C43.7899127,39.1266982 42.7789311,38.1022993 41.531622,38.1019896 C40.2840967,38.1019896 39.2727776,39.1264792 39.2727776,40.3902511 C39.2727776,41.654023 40.2840967,42.6785126 41.531622,42.6785126 C42.7791473,42.6785126 43.7904663,41.654023 43.7904663,40.3902511 Z M44.903833,15.8161177 L45.9618359,17.5031497 L19.6363334,17.5031497 L20.6771735,15.8161177 C20.8404968,15.5491538 21.1283887,15.4285714 21.4378726,15.4285714 L44.1436876,15.4285714 C44.4526178,15.4285714 44.7405097,15.5497147 44.903833,15.8161177 Z" id="合并形状" fill="#FFFFFF"></path>
                </g>
            </g>
        </g>
    </g>
</svg>